<?xml version="1.0" encoding="UTF-8" standalone="no"?><!DOCTYPE svg PUBLIC "-//W3C//DTD SVG 1.1//EN" "http://www.w3.org/Graphics/SVG/1.1/DTD/svg11.dtd"><svg width="100%" height="100%" viewBox="0 0 2000 2000" version="1.1" xmlns="http://www.w3.org/2000/svg" xmlns:xlink="http://www.w3.org/1999/xlink" xml:space="preserve" xmlns:serif="http://www.serif.com/" style="fill-rule:evenodd;clip-rule:evenodd;stroke-linejoin:round;stroke-miterlimit:2;"><g><path d="M816.17,1500.32c28.094,26.198 69.966,31.59 110.007,8.852l113.429,-64.421c7.958,-4.52 11.645,-15.914 7.756,-23.759c-7.89,-15.964 -16.466,-26.65 -16.466,-26.65c12.614,6.116 22.588,16.79 29.964,27.275c3.332,4.731 9.219,5.828 14.672,2.743l0.461,-0.262c7.958,-4.519 11.629,-15.92 7.756,-23.759c-7.907,-15.969 -16.482,-26.656 -16.482,-26.656c12.63,6.122 22.589,16.79 29.964,27.275c3.332,4.731 9.235,5.834 14.672,2.743c7.958,-4.52 11.63,-15.92 7.757,-23.761c-7.891,-15.962 -16.467,-26.648 -16.467,-26.648c12.614,6.116 22.573,16.784 29.964,27.276c3.332,4.73 9.219,5.827 14.656,2.736l1.382,-0.784c7.959,-4.522 11.646,-15.914 7.757,-23.761c-7.891,-15.962 -16.466,-26.648 -16.466,-26.648c12.614,6.115 22.588,16.79 29.964,27.274c3.331,4.732 9.22,5.827 14.656,2.738l40.662,-23.09c-18.083,-64.576 -80.041,-90.086 -138.35,-56.96l-55.319,29.66l-1.861,5.927l-12.165,24.541l-2.024,3.264l-2.206,3.611l-21.923,33.391l-6.607,8.585l-2.864,2.784l-23.096,25.523l-12.779,11.458l-21.294,17.57l-13.703,9.915l-35.231,20.073l-36.829,15.299" style="fill:url(#_Linear1);"/><path d="M1951.62,1371.1c-14.336,-33.932 -34.396,-71.972 -60.129,-114.086c-25.715,-42.131 -54.989,-81.89 -87.786,-119.243c-32.797,-37.335 -67.193,-65.595 -103.171,-84.709c85.638,-18.668 149.514,-50.326 191.645,-94.975c42.131,-44.631 63.205,-104.292 63.205,-179.004c0,-36.419 -6.257,-70.93 -18.788,-103.494c-12.531,-32.565 -30.872,-61.144 -54.989,-85.741c-24.151,-24.594 -51.946,-43.499 -83.368,-56.714c-25.956,-11.842 -55.109,-19.701 -87.443,-23.576c-32.35,-3.854 -71.284,-5.801 -116.836,-5.801l-329.994,-0c-43.723,-0 -75.379,9.805 -94.97,29.377c-19.59,19.59 -29.376,51.248 -29.376,94.969l-0,39.961l9.933,7.783c6.043,4.708 9.898,11.01 11.363,17.757c7.542,0.371 15.011,2.891 21.165,7.673c6.69,5.263 10.879,11.825 12.492,18.719c7.599,0.372 15.142,2.892 21.314,7.748c6.024,4.708 9.898,11.009 11.363,17.718c7.542,0.372 15.011,2.892 21.165,7.674c6.247,4.93 10.231,11.305 11.732,18.088c7.563,0.371 15.049,2.891 21.203,7.711l61.182,47.837l0,-170.664l187.208,0c69.686,0 116.355,5.023 140.042,15.033c25.063,10.49 44.658,26.299 58.788,47.483c14.095,21.185 21.16,45.669 21.16,73.453c0,35.528 -8.766,63.423 -26.299,83.681c-17.534,20.277 -42.94,34.621 -76.184,43.054c-33.244,8.434 -74.241,12.642 -122.973,12.642l-94.947,-0c1.002,5.801 1.688,11.657 1.688,17.626c-0,30.248 -13.068,58.641 -36.995,81.171c14.66,13.821 25.187,29.824 31.193,47.117c30.692,0.945 56.863,5.45 77.88,13.94c23.673,9.592 47.017,27.348 70.016,53.305c23,25.955 49.093,63.772 78.246,113.415l81.306,135.281c19.132,31.869 34.259,56.003 45.432,72.419c11.156,16.399 24.477,29.944 39.948,40.636c15.505,10.691 34.619,16.072 57.413,16.072c19.114,-0 35.96,-3.765 50.554,-11.294c14.559,-7.494 26.059,-17.756 34.499,-30.717c8.423,-12.995 12.634,-26.077 12.634,-39.295c-0,-12.755 -7.168,-36.098 -21.521,-70.03Z" style="fill:url(#_Linear2);"/><path d="M1247.09,1189.52c-0.853,13.993 -6.926,27.28 -13.814,38.092c-3.106,4.882 -1.879,10.744 3.05,14.611l0.417,0.327c7.21,5.638 19.149,4.692 24.923,-1.874c11.756,-13.39 18.374,-25.389 18.374,-25.389c-0.853,14.01 -6.926,27.28 -13.813,38.092c-3.107,4.882 -1.879,10.761 3.049,14.611c7.209,5.638 19.149,4.693 24.925,-1.874c11.755,-13.373 18.372,-25.371 18.372,-25.371c-0.853,13.992 -6.926,27.262 -13.814,38.092c-3.106,4.881 -1.879,10.743 3.05,14.593l1.251,0.98c7.211,5.638 19.149,4.71 24.925,-1.873c11.755,-13.374 18.372,-25.372 18.372,-25.372c-0.853,13.992 -6.926,27.28 -13.812,38.092c-3.108,4.882 -1.879,10.743 3.048,14.594l36.831,28.809c52.829,-41.306 52.829,-108.31 -0.001,-149.617l-102.755,-80.377c-7.209,-5.638 -19.147,-4.693 -24.923,1.873c-11.756,13.374 -18.374,25.372 -18.374,25.372c0.853,-13.992 6.928,-27.263 13.814,-38.092c3.106,-4.882 1.878,-10.743 -3.05,-14.594l-0.416,-0.324c-7.211,-5.64 -19.149,-4.712 -24.924,1.871c-11.756,13.374 -18.374,25.372 -18.374,25.372c0.854,-13.992 6.927,-27.278 13.813,-38.092c3.106,-4.882 1.879,-10.743 -3.049,-14.594c-7.209,-5.655 -19.147,-4.709 -24.923,1.857c-11.756,13.39 -18.374,25.389 -18.374,25.389c0.853,-14.01 6.926,-27.28 13.814,-38.092c3.106,-4.882 1.878,-10.761 -3.05,-14.611l-1.251,-0.98c-7.21,-5.638 -19.149,-4.693 -24.923,1.874c-11.758,13.39 -18.374,25.371 -18.374,25.371c0.853,-13.992 6.926,-27.262 13.814,-38.091c3.106,-4.865 1.878,-10.744 -3.05,-14.594l-36.832,-28.808c-52.828,41.322 -52.828,108.309 0.004,149.632l102.753,80.361c7.209,5.638 19.149,4.709 24.923,-1.874c11.757,-13.373 18.374,-25.372 18.374,-25.372Z" style="fill:url(#_Linear3);"/><path d="M1247.09,1027.13c-0.853,13.992 -6.926,27.263 -13.814,38.092c-3.106,4.883 -1.879,10.743 3.05,14.594l0.417,0.326c7.21,5.64 19.149,4.71 24.923,-1.872c11.756,-13.375 18.374,-25.373 18.374,-25.373c-0.853,13.994 -6.926,27.28 -13.813,38.092c-3.107,4.883 -1.879,10.743 3.049,14.594c7.209,5.638 19.149,4.709 24.925,-1.857c11.755,-13.39 18.372,-25.389 18.372,-25.389c-0.853,13.992 -6.926,27.28 -13.814,38.092c-3.106,4.882 -1.879,10.743 3.05,14.611l1.251,0.98c7.211,5.638 19.149,4.693 24.925,-1.874c11.755,-13.39 18.372,-25.389 18.372,-25.389c-0.853,14.01 -6.926,27.28 -13.812,38.092c-3.108,4.882 -1.879,10.761 3.048,14.611l36.831,28.81c52.829,-41.324 52.829,-108.311 -0.001,-149.634l-102.755,-80.366c-7.209,-5.64 -19.147,-4.703 -24.923,1.87c-11.756,13.381 -18.374,25.377 -18.374,25.377c0.853,-13.996 6.928,-27.274 13.814,-38.092c3.106,-4.88 1.878,-10.746 -3.05,-14.6l-0.416,-0.327c-7.211,-5.64 -19.149,-4.701 -24.924,1.87c-11.756,13.381 -18.374,25.377 -18.374,25.377c0.854,-13.996 6.927,-27.274 13.813,-38.092c3.106,-4.88 1.879,-10.747 -3.049,-14.6c-7.209,-5.64 -19.147,-4.703 -24.923,1.87c-11.756,13.38 -18.374,25.376 -18.374,25.376c0.853,-13.995 6.926,-27.274 13.814,-38.091c3.106,-4.88 1.878,-10.747 -3.05,-14.601l-1.251,-0.98c-7.21,-5.638 -19.149,-4.701 -24.923,1.872c-11.758,13.38 -18.374,25.375 -18.374,25.375c0.853,-13.995 6.926,-27.274 13.814,-38.091c3.106,-4.879 1.878,-10.746 -3.05,-14.601l-36.832,-28.808c-52.828,41.318 -52.828,108.307 0.004,149.629l102.753,80.372c7.209,5.64 19.149,4.693 24.923,-1.873c11.757,-13.374 18.374,-25.372 18.374,-25.372Z" style="fill:url(#_Linear4);"/><path d="M1247.09,864.733c-0.853,13.996 -6.926,27.274 -13.814,38.09c-3.106,4.88 -1.879,10.747 3.05,14.602l0.417,0.325c7.21,5.64 19.149,4.703 24.923,-1.87c11.756,-13.38 18.374,-25.377 18.374,-25.377c-0.853,13.996 -6.926,27.276 -13.813,38.092c-3.107,4.88 -1.879,10.747 3.049,14.602c7.209,5.639 19.149,4.702 24.925,-1.871c11.755,-13.381 18.372,-25.375 18.372,-25.375c-0.853,13.995 -6.926,27.274 -13.814,38.089c-3.106,4.881 -1.879,10.747 3.05,14.603l1.251,0.978c7.211,5.64 19.149,4.701 24.925,-1.87c11.755,-13.38 18.372,-25.377 18.372,-25.377c-0.853,13.996 -6.926,27.275 -13.812,38.092c-3.108,4.88 -1.879,10.747 3.048,14.6l36.831,28.803c52.829,-41.313 52.829,-108.302 -0.001,-149.624l-102.755,-80.367c-7.209,-5.64 -19.147,-4.701 -24.923,1.871c-11.756,13.38 -18.374,25.376 -18.374,25.376c0.853,-13.995 6.928,-27.274 13.814,-38.092c3.106,-4.88 1.878,-10.746 -3.05,-14.6l-0.416,-0.327c-7.211,-5.64 -19.149,-4.701 -24.924,1.87c-11.756,13.38 -18.374,25.377 -18.374,25.377c0.854,-13.996 6.927,-27.274 13.813,-38.092c3.106,-4.88 1.879,-10.747 -3.049,-14.6c-7.209,-5.64 -19.147,-4.703 -24.923,1.87c-11.756,13.38 -18.374,25.377 -18.374,25.377c0.853,-13.996 6.926,-27.275 13.814,-38.092c3.106,-4.88 1.878,-10.747 -3.05,-14.601l-1.251,-0.98c-7.21,-5.638 -19.149,-4.701 -24.923,1.872c-11.758,13.381 -18.374,25.375 -18.374,25.375c0.853,-13.995 6.926,-27.274 13.814,-38.091c3.106,-4.879 1.878,-10.745 -3.05,-14.601l-36.832,-28.808c-52.828,41.318 -52.828,108.307 0.004,149.629l102.753,80.367c7.209,5.64 19.149,4.703 24.923,-1.87c11.757,-13.38 18.374,-25.375 18.374,-25.375Z" style="fill:url(#_Linear5);"/><path d="M49.495,504.103c10.125,-0.53 20.329,-0.078 30.474,-0.157c-1.393,18.151 -5.22,36.047 -6.986,54.178c-5.161,37.95 -8.987,75.939 -12.912,114.007c-2.021,31.416 -6.043,62.517 -6.848,94.051c-2.629,21.683 -1.02,43.425 -3.769,65.088c0.669,-19.76 -0.236,-39.461 -0.177,-59.221c-0.037,-87.595 0.041,-175.229 -0.037,-262.824c0.019,-1.707 0.118,-3.434 0.255,-5.122Z" style="fill-rule:nonzero;"/><path d="M187.618,504.005c-29.964,99.8 -50.253,202.622 -60.555,306.308c-2.276,24.489 -4.71,49.037 -5.22,73.624c-1.766,16.306 -1.354,32.475 -2.217,49.017c-1.217,12.519 -0.667,24.685 -0.687,37.283c0.137,11.243 -0.432,22.154 0.648,33.338c1,18.249 0.176,36.773 2.08,54.963c0.647,10.047 0.49,20.054 1.903,30.062c10.439,143.794 40.501,286.234 88.635,422.14c-22.919,0.137 -45.858,0.039 -68.797,0.039c-39.657,-141.734 -63.361,-288.039 -71.053,-434.973c-1.354,-17.817 -1.04,-35.693 -2.531,-53.509c-0.589,-35.617 -0.667,-71.388 0.216,-107.003c1.491,-20.015 0.569,-40.187 2.394,-60.163c6.711,-118.03 23.076,-235.942 50.41,-350.989c21.565,-0.529 43.209,-0.215 64.774,-0.137Z" style="fill-rule:nonzero;"/><path d="M216.424,504.221c11.636,-0.824 23.468,-0.137 35.144,-0.235c-32.731,84.612 -56.16,172.953 -70.484,262.529c-8.104,50.587 -12.814,101.547 -15.345,152.683c-0.628,36.734 -1.256,73.212 0.51,109.948c1.589,12.968 0.667,25.978 2.453,38.929c11.106,152.957 50.292,303.05 113.771,442.606c-11.028,0.196 -22.075,0.098 -33.103,0.098c-52.137,-121.13 -86.81,-249.697 -102.606,-380.619c-4.906,-43.797 -8.948,-88.399 -9.223,-132.471c-1.471,-18.877 -1.471,-37.99 -0.098,-56.866c0.393,-14.992 0.412,-30.003 1.04,-44.975c2.08,-23.489 2.531,-47.251 5.573,-70.7c2.139,-17.327 3.728,-34.732 6.142,-52.039c3.61,-20.427 5.867,-40.992 10.223,-61.282c12.637,-69.051 31.082,-137.259 54.06,-203.564c0.55,-1.413 1.197,-2.747 1.943,-4.042Z" style="fill-rule:nonzero;"/><path d="M277.136,504.182c9.497,-0.707 19.112,-0.177 28.649,-0.157c-27.923,57.376 -50.646,117.499 -67.423,179.055c-3.199,0.197 -6.397,0.354 -9.596,0.511c-0.529,15.796 1.649,33.064 -2.59,48.134c-10.792,46.898 -17.719,94.404 -21.997,142.302c-1.707,13.932 -1.177,27.943 -2.806,41.895c-1,25.94 -0.628,51.999 -0.372,77.96c2.178,62.792 9.458,125.349 22.801,186.767c2.139,10.4 5.377,20.055 4.984,30.847c-0.255,25.176 0.451,50.391 -0.432,75.527c-23.586,-79.216 -38.479,-161.297 -44.052,-243.751c-1.766,-14.207 -0.922,-28.61 -2.375,-42.875c-0.883,-20.918 -0.804,-41.895 -0.372,-62.793c-0.197,-15.207 1.903,-30.218 1.726,-45.426c3.415,-48.879 9.145,-97.857 18.583,-145.952c15.325,-81.022 39.716,-159.885 71.838,-235.785c1.02,-2.197 2.002,-4.317 3.434,-6.259Z" style="fill-rule:nonzero;"/><path d="M352.742,503.829c21.369,0.196 42.738,-0.118 64.107,0.196c-38.912,55.688 -70.445,115.616 -94.11,179.271c-15.816,0.138 -31.651,0.079 -47.467,0.02c1.256,-12.931 2.649,-25.764 2.158,-38.794c-0.451,-6.593 1.197,-12.696 2.63,-19.034c3.336,-1.334 7.142,-2.276 10.145,-4.297c3.532,-3.768 5.553,-9.105 8.398,-13.422c2.178,-3.395 5.828,-5.965 8.065,-9.321c3.532,-9.36 0.687,-20.996 0.137,-30.591c-0.922,-7.359 3.532,-15.208 5.848,-22.134c2.041,-6.613 7.633,-8.831 11.616,-14.246c6.358,-8.693 8.654,-18.603 17.68,-25.392c2.944,-2.884 7.006,-2.001 10.793,-2.256Z" style="fill-rule:nonzero;"/><path d="M434.352,504.28c10.047,-0.962 20.329,-0.157 30.434,-0.334c-2.688,5.416 -5.729,10.655 -8.398,16.071c-1.118,4.729 -1.629,9.596 -2.551,14.364c-4.337,-0.53 -8.654,-1.177 -12.97,-1.707c-0.314,4.042 0.019,8.418 -1.08,12.342c-1.648,2.571 -3.708,4.808 -5.278,7.457c-0.922,5.376 -1.374,10.871 -2.002,16.306c-2.747,-0.235 -5.494,-0.49 -8.241,-0.745c-0.471,4.316 -0.765,8.673 -1.57,12.931c-1.04,3.414 -4.847,5.729 -5.887,9.203c-1.118,3.394 -1.785,7.044 -3.198,10.321c-2.787,1.59 -5.985,2.61 -8.968,3.768c-1.197,3.708 -1.589,8.594 -4.238,11.557c-1.707,2.296 -4.317,4.396 -5.357,7.084c-1.923,8.124 -0.805,17.091 -2.806,25.254c-2.041,4.749 -6.515,8.026 -8.889,12.696c-2.041,4.474 -5.867,6.417 -9.596,9.242c-0.294,4.357 -0.51,8.732 -0.706,13.108c-10.439,0.275 -20.898,0.216 -31.337,0.059c21.251,-57.514 48.369,-112.712 82.081,-163.946c3.414,-5.004 6.416,-10.596 10.557,-15.031Z" style="fill-rule:nonzero;"/><path d="M505.856,503.829c-3.571,6.887 -4.905,15.03 -9.281,21.349c-3.257,4.552 -9.419,5.18 -13.029,8.693c-5.161,5.847 -3.729,12.735 -7.948,19.504c-2.943,4.926 -9.615,6.378 -12.715,10.734c-4.18,5.73 -7.594,11.989 -11.479,17.915c-3.336,5.769 -7.555,10.538 -7.417,17.504c-0.314,10.89 -6.554,17.346 -11.519,26.529c-7.496,10.008 -11.95,21.271 -15.992,32.986c-2.12,6.083 -7.908,9.085 -11.715,14.05c-1.629,2.963 -1.943,6.789 -2.629,10.066c-3.199,0.157 -6.397,0.294 -9.596,0.451c0.726,-5.887 0.667,-12.028 2.1,-17.778c1.216,-5.2 6.456,-9.517 8.418,-14.167c0.981,-5.004 0.098,-10.596 -0.255,-15.659c3.473,-2.198 9.222,-3.414 10.36,-7.731c2.767,-7.32 7.241,-13.461 11.911,-19.623c2.865,-3.493 7.084,-6.24 9.458,-10.007c4.259,-6.77 5.495,-15.424 7.398,-23.233c1.04,-4.553 0.098,-10.224 2.61,-14.148c3.748,-1.04 7.653,-1.59 11.499,-2.218c3.689,-10.282 7.515,-21.506 16.561,-28.354c6.574,-6.79 7.202,-19.662 14.992,-26.177c5.965,-1.02 12.244,-0.549 18.268,-0.686Z" style="fill-rule:nonzero;"/><path d="M529.011,504.299c5.592,-0.863 11.479,-0.313 17.129,-0.196c-2.687,5.122 -5.866,9.929 -8.691,14.972c-2.924,6.005 -8.36,9.537 -12.343,15.031c-6.142,7.908 -14.599,12.46 -17.484,22.036c-2.884,8.654 -7.711,16.287 -10.243,25.058c-1.157,5.377 -8.535,7.633 -12.146,11.381c-3.1,5.75 -2.119,11.99 -6.672,16.758c-3.002,4.062 -7.123,6.652 -10.694,10.106c-4.807,13.029 -7.555,26.451 -9.733,40.147c-3.61,1.943 -8.241,3.258 -11.204,6.142c-3.218,5.73 -5.769,11.832 -9.046,17.562c-3.709,0.059 -7.417,0.098 -11.126,0.177c1.491,-5.887 1.315,-11.989 2.629,-17.896c1.708,-6.299 7.947,-9.713 9.713,-15.561c2.179,-6.828 5.475,-13.147 7.771,-19.936c1.609,-5.043 6.868,-8.006 10.714,-11.381c0.137,-3.571 0.078,-7.202 0.53,-10.734c1.314,-3.963 3.846,-7.594 6.357,-10.89c2.767,-3.709 8.36,-5.023 11.872,-7.947c3.532,-6.456 3.022,-13.481 8.34,-19.113c5.651,-5.16 2.06,-13.127 7.476,-17.837c6.416,-6.338 11.322,-13.676 15.874,-21.408c7.477,-8.496 15.129,-16.698 20.977,-26.471Z" style="fill-rule:nonzero;"/><path d="M587.211,504.26c8.124,-0.922 16.483,-0.118 24.666,-0.353c-2.296,1.452 -4.67,2.845 -6.829,4.494c-1.157,2.315 -1.923,4.925 -2.747,7.378c-2.806,1.373 -6.534,1.746 -7.967,4.768c-3.296,5.514 -6.455,11.106 -9.713,16.659c-3.61,2.394 -7.456,3.336 -10.066,7.065c-2.473,3.277 -5.71,5.376 -9.125,7.574c0.079,3.866 0.177,7.731 0.256,11.597c-2.963,1.432 -6.066,2.708 -8.85,4.454c-3.159,3.218 -5.887,7.26 -8.183,11.126c-1.256,4.631 -1.532,9.615 -2.963,14.207c-5.789,3.434 -12.539,5.769 -18.916,7.888c-0.392,6.691 -1.06,13.03 -3.983,19.171c-2.277,4.867 -1.786,9.694 -2.08,14.894c-4.474,1.02 -8.948,2.099 -13.461,3.002c-0.412,10.616 -4.808,19.348 -8.693,28.963c-3.571,0.863 -7.123,1.668 -10.714,2.414c-1.668,4.179 -2.492,10.537 -6.22,13.343c-4.828,0.746 -9.871,0.451 -14.776,0.589c2.354,-2.139 5.062,-4.121 7.044,-6.613c1.668,-4.886 2.237,-9.851 5.004,-14.344c3.944,-6.692 4.337,-14.482 8.575,-20.624c2.551,-2.276 5.632,-4.003 8.202,-6.299c2.08,-4.964 2.571,-10.753 3.611,-16.011c8.084,-3.572 11.145,-10.538 16.659,-16.954c1.688,-6.79 0.825,-13.285 5.024,-19.486c2.806,-5.906 8.418,-4.984 13.559,-7.731c3.395,-4.081 5.18,-9.34 8.553,-13.5c4.103,-5.004 7.204,-10.479 10.265,-16.189c0.589,-3.336 0.334,-6.868 0.412,-10.262c4.158,-3.591 8.359,-6.201 10.106,-11.754c1.628,-3.238 2.119,-7.947 5.945,-9.282c6.436,-2.531 11.656,-6.514 17.405,-10.184Z" style="fill-rule:nonzero;"/><path d="M653.555,504.064c-2.139,3.964 -3.983,8.693 -7.182,11.95c-6.24,5.828 -12.244,11.499 -19.642,15.914c-5.043,4.768 -8.987,9.38 -15.541,12.323c-0.687,4.121 -1.04,8.732 -2.727,12.598c-3.199,3.944 -8.242,6.298 -11.421,10.203c-3.041,5.711 -1.491,13.56 -4.415,19.309c-2.57,3.826 -5.082,7.77 -7.927,11.401c-4.474,2.335 -9.988,2.649 -14.678,4.631c-1.295,5.101 -1.334,10.89 -3.414,15.953c-3.042,7.594 -6.652,14.991 -10.341,22.291c5.06,1.746 10.478,5.102 15.855,5.357c5.415,-3.984 10.714,-9.537 14.795,-14.854c3.454,-7.418 3.218,-16.601 7.359,-23.96c2.786,-3.885 7.927,-5.631 10.929,-9.085c3.375,-10.4 7.163,-20.525 9.929,-31.121c3.827,0.157 7.673,0.333 11.499,0.451c3.905,-5.867 7.359,-12.735 11.97,-17.994c2.845,-0.765 6.554,1.864 9.301,2.61c0.942,-6.495 0.471,-14.383 3.375,-20.29c3.473,-0.196 6.986,-0.098 10.459,-0.078c1.432,-3.1 2.531,-6.652 4.572,-9.419c2.571,-2.492 6.161,-4.415 8.202,-7.319c3.042,-4.14 5.024,-8.281 10.047,-10.42c11.518,-0.922 23.488,0.295 34.928,1.766c0.53,1.845 1.06,3.67 1.609,5.514c-4.65,2.178 -9.693,3.67 -14.148,6.181c-1.727,3.513 -2.747,7.516 -4.807,10.832c-3.395,4.67 -8.261,6.26 -13.246,8.614c-0.882,3.375 -1.687,6.75 -2.57,10.106c-5.985,0.255 -11.931,0.628 -17.876,1.354c-1.158,3.846 -0.53,8.143 -4.611,10.145c-5.691,3.218 -8.948,7.162 -12.029,12.872c-0.412,3.925 -0.196,7.947 -0.216,11.891c-4.317,-1.197 -8.771,-3.689 -13.265,-3.767c-2.217,3.022 -4.219,6.299 -5.788,9.693c-0.707,5.534 -0.491,11.205 -0.726,16.778c-5.161,-0.236 -10.106,-1.295 -15.11,-2.551c-2.453,4.356 -4.631,8.81 -6.044,13.618c-2.688,7.005 -1.138,15.168 -1.197,22.723c-4.63,-0.334 -9.261,-0.805 -13.873,-1.354c-1.668,4.101 -3.336,8.202 -4.925,12.323c12.264,0.098 22.272,-3.807 33.967,1.707c0.922,-3.434 1.354,-7.28 2.963,-10.479c3.041,-4.042 8.28,-7.221 10.144,-11.91c1.276,-5.161 1.08,-10.832 1.217,-16.13c2.472,-1.256 5.063,-2.375 7.378,-3.885c2.178,-3.572 3.356,-7.673 5.534,-11.264c4.493,-1.962 10.714,-0.589 15.619,-0.785c0.569,-3.905 0.569,-8.202 1.982,-11.911c3.316,-3.963 7.123,-7.417 10.125,-11.675c3.631,-5.377 10.184,-6.475 14.737,-10.851c2.59,-4.16 4.062,-8.516 7.417,-12.264c3.061,-3.984 8.968,-5.2 13.5,-7.084c1.256,-3.552 2.336,-7.3 4.043,-10.675c3.944,-4.415 9.89,-7.103 14.148,-11.302c4.199,-4.219 9.105,-7.987 14.344,-10.812c6.887,0.902 13.677,3.335 20.093,5.886c-2.139,3.67 -4.317,7.477 -7.064,10.734c-3.1,2.296 -7.084,3.336 -10.184,5.651c-3.728,4.101 -5.965,9.655 -9.929,13.481c-5.318,3.983 -12.244,6.181 -18.386,8.614c-1.237,4.749 -2.375,9.517 -3.65,14.266c-7.751,3.022 -18.642,4.748 -23.626,11.832c-7.417,9.007 -14.128,18.602 -21.467,27.688c-3.846,4.768 -8.948,6.514 -13.696,10.086c-4.023,6.495 -5.75,15.855 -10.93,22.055c-3.454,3.807 -8.712,5.867 -10.184,10.852c-1.57,4.218 -3.022,8.477 -4.67,12.676c5.514,2.531 10.066,3.748 16.149,4.042c5.514,-6.652 9.811,-14.089 14.913,-20.996c4.592,-4.906 7.594,-10.753 11.597,-16.071c3.395,-4.69 4.67,-11.205 6.534,-16.66c3.062,-0.098 6.103,-0.196 9.164,-0.274c1.452,-4.612 2.492,-10.753 5.985,-14.285c4.494,-2.963 10.42,-3.748 14.854,-6.79c5.083,-4.65 7.732,-11.95 14.227,-15.011c3.139,-1.943 8.065,-2.61 9.968,-5.867c2.904,-4.258 5.847,-8.399 9.713,-11.852c3.944,-3.748 8.968,-5.043 12.892,-8.791c4.337,-4.121 8.811,-7.476 13.971,-10.557c0.157,-2.865 0.314,-5.73 0.471,-8.575c7.241,-1.531 10.381,-2.904 14.992,-8.811c11.028,5.887 24.822,10.204 33.554,19.191c-6.73,1.413 -13.5,2.394 -20.289,3.277c-5.887,0.785 -11.146,4.866 -16.797,6.966c-5.808,1.864 -6.181,8.556 -12.284,10.322c-5.023,1.648 -7.398,5.121 -10.733,8.869c-2.905,3.925 -8.458,3.728 -12.932,5.141c-2.178,4.729 -3.453,10.439 -6.534,14.599c-6.456,4.239 -15.286,5.338 -21.232,10.184c-4.788,6.103 -5.16,15.443 -10.301,21.173c-3.846,1.589 -8.144,2.159 -12.029,3.63c-4.003,3.866 -5.475,10.302 -8.869,14.717c-2.591,3.258 -5.573,6.162 -8.006,9.556c-6.809,7.908 -7.32,20.781 -7.221,30.71c-11.637,-0.707 -23.43,0.451 -35.007,-0.589c-4.337,-5.357 -8.399,-7.28 -14.697,-9.694c-3.454,3.297 -6.868,7.398 -11.126,9.655c-6.064,0.942 -12.5,0.333 -18.603,-0.039c2.571,-6.613 6.711,-10.656 11.951,-15.208c-4.651,-2.531 -8.556,-5.278 -14.129,-4.984c-3.924,0.275 -9.791,-0.412 -12.813,2.512c-5.691,4.944 -10.224,11.557 -13.697,18.209c-6.889,-0.059 -13.757,-0.019 -20.625,-0.451c5.104,-9.87 16.326,-14.854 23.667,-23.331c-5.869,-7.006 -14.091,-7.084 -21.114,-12.304c-4.062,6.103 -7.869,12.206 -9.851,19.348c-1.609,5.887 -3.944,11.146 -6.848,16.483c-8.261,0.255 -16.483,0.157 -24.744,0.177c4.533,-4.69 9.066,-8.791 11.676,-14.933c4.042,-10.066 10.929,-17.798 12.303,-28.865c5.514,-3.964 11.773,-7.123 17.854,-10.066c-0.194,-12.264 0.297,-23.685 3.731,-35.537c4.689,0.334 9.379,0.707 14.089,0.864c3.591,-8.811 4.042,-18.308 7.162,-27.177c3.807,-1.374 7.947,-2.139 11.891,-2.924c3.042,-8.673 8.202,-16.562 13.206,-24.175c6.122,-5.259 11.813,-10.479 16.208,-17.327c2.924,-4.788 7.634,-5.298 12.421,-7.319c1.354,-3.14 1.766,-7.103 4.69,-9.046c4.925,-4.808 13.814,-2.551 20.113,-2.806Z" style="fill-rule:nonzero;"/><path d="M832.768,550.825c2.374,-0 4.101,0.706 6.024,2.06c5.377,3.689 10.479,7.81 15.6,11.852c-6.377,4.199 -12.578,3.65 -19.799,4.356c-4.356,3.14 -7.123,8.634 -11.656,11.715c-4.317,2.825 -8.771,5.435 -12.99,8.438c-5.946,4.356 -13.029,4.218 -19.25,8.143c-3.296,3.159 -4.199,9.144 -8.045,11.911c-3.571,3.022 -6.809,6.377 -10.577,9.163c-5.455,4.023 -8.3,10.165 -13.029,14.482c-3.375,1.354 -6.966,2.198 -10.478,3.159c-3.081,6.946 -7.653,12.931 -12.912,18.367c-5.318,4.827 -8.811,10.674 -15.345,14.128c-5.416,2.708 -3.787,11.989 -9.399,14.58c-4.69,3.394 -12.519,1.157 -17.915,0.981c0.726,-2.963 0.981,-6.358 2.492,-9.027c3.708,-4.238 8.025,-7.574 10.871,-12.558c1.609,-2.826 3.061,-4.16 6.024,-5.534c7.594,-2.668 8.182,-11.479 12.146,-17.464c3.12,-2.943 7.672,-4.434 11.244,-6.809c4.258,-5.926 6.259,-13.991 8.673,-20.8c4.611,0.177 9.222,0.373 13.814,0.589c4.219,-6.456 7.673,-8.359 14.639,-11.244c5.435,-7.849 12.95,-13.225 18.582,-20.917c3.375,0.353 6.77,0.706 10.145,1.02c1.57,-2.747 3.081,-5.494 4.592,-8.261c3.551,-0.706 7.24,-1.236 10.655,-2.433c5.71,-6.397 11.224,-12.676 15.894,-19.897Z" style="fill-rule:nonzero;"/><path d="M870.522,579.356c4.238,2.786 7.692,7.162 11.086,10.871c-5.278,0.745 -10.556,1.55 -15.835,2.374c-0.02,3.336 0.02,6.672 0.118,10.007c-3.159,1.217 -6.456,2.355 -9.458,3.905c-4.239,2.551 -7.457,7.104 -11.46,10.067c-5.004,3.551 -9.438,7.613 -14.697,10.753c-8.457,5.357 -19.25,7.77 -28.806,10.596c-0.373,2.669 -0.746,5.337 -1.158,8.006c-3.649,1.648 -7.79,2.943 -11.008,5.357c-4.16,4.219 -6.613,10.125 -10.616,14.521c-3.002,1.942 -7.103,2.119 -10.419,3.532c-3.003,2.158 -5.632,4.886 -8.203,7.554c-3.571,3.277 -3.571,9.419 -6.652,13.167c-3.767,4.474 -7.829,8.693 -11.773,13.01c-2.414,-1.688 -4.847,-3.375 -7.28,-5.043c6.004,-9.144 7.26,-20.702 11.616,-30.788c2.944,-1.04 6.535,-1.511 9.086,-3.355c5.474,-5.043 10.576,-10.361 15.345,-16.091c3.904,-2.433 9.085,-3.905 12.479,-7.005c3.847,-4.199 5.789,-11.754 11.087,-14.227c7.947,-3.139 17.778,-3.021 26.275,-3.355c6.063,-11.499 17.052,-16.326 25.018,-25.941c2.532,-2.983 7.28,-4.042 10.773,-5.592c-0.019,-3.631 -0.059,-7.261 0.02,-10.891c4.611,-0.863 9.772,-2.08 14.462,-1.432Z" style="fill-rule:nonzero;"/><path d="M895.953,607.396c5.141,5.298 9.281,11.656 13.676,17.562c-4.415,1.354 -9.536,2.493 -13.264,5.357c-2.061,3.336 -1.943,8.124 -3.238,11.872c-8.32,4.435 -16.581,3.552 -25.588,2.826c-0.844,2.472 -1.413,5.141 -2.629,7.456c-3.63,2.944 -7.634,5.259 -10.93,8.615c-10.851,8.653 -28.571,15.325 -34.32,28.688c-2.904,2.825 -7.299,4.277 -9.007,7.927c-3.257,6.064 -7.79,11.695 -12.637,16.542c-3.355,0.589 -6.789,0.844 -10.184,1.197c-1.197,2.983 -2.001,6.436 -3.905,9.046c-4.434,2.708 -9.83,4.042 -14.717,5.73c0.197,2.276 0.413,4.572 0.609,6.848c8.025,5.063 12.382,10.675 16.856,18.897c0.686,-3.375 1.02,-7.123 2.472,-10.263c5.455,-4.513 11.577,-8.281 16.836,-13.029c7.221,-7.928 15.718,-14.501 22.841,-22.566c4.317,-5.867 12.892,-4.553 17.013,-10.106c4.552,-4.925 7.299,-11.067 11.498,-16.149c8.536,-7.143 17.935,-13.403 26.922,-19.956c9.262,-3.631 18.073,-8.34 27.786,-10.538c4.474,-0.471 6.299,-7.025 8.634,-10.184c2.845,5.259 5.494,10.616 8.183,15.953c-3.101,0.923 -6.358,1.57 -9.341,2.846c-2.629,2.256 -4.572,6.043 -7.633,7.613c-4.729,0.393 -9.556,-0.078 -14.285,-0.196c-1.57,3.846 -3.061,7.731 -4.631,11.597c-5.337,-0.314 -10.636,-1.217 -15.973,-1.531c-5.573,0.824 -5.18,9.596 -9.615,12.206c-7.162,4.003 -12.656,9.752 -18.582,15.305c-3.552,3.179 -8.301,4.396 -11.087,8.34c-5.75,6.887 -5.2,15.188 -12.421,20.996c-3.885,3.983 -8.673,4.219 -13.775,5.651c-0.903,2.708 -1.747,5.494 -2.944,8.085c-2.982,3.139 -8.791,3.846 -11.361,7.378c-0.412,2.57 -0.903,6.691 1.079,8.692c6.554,8.222 15.011,9.537 23.92,15.797c0.491,-6.594 1.315,-12.225 5.808,-17.386c5.141,-8.202 13.54,-12.46 18.936,-20.466c8.85,-11.676 21.467,-18.838 29.61,-31.102c8.203,-2.649 14.737,-7.574 22.488,-11.067c8.771,-5.318 12.951,-13.343 19.328,-20.447c6.24,-1.295 12.872,-1.04 19.23,-1.354c1.001,2.218 2.002,4.455 3.022,6.672c-4.18,2.531 -7.319,5.69 -12.146,6.279c-5.475,0.883 -9.988,4.415 -15.325,6.181c-0.197,3.238 -0.393,6.476 -0.57,9.713c-5.023,-0.078 -10.027,-0.294 -15.03,-0.608c-3.689,5.553 -6.201,11.283 -8.556,17.484c-3.787,3.1 -11.302,1.609 -16.012,2.413c0.295,4.003 0.726,7.987 1.099,11.99c-5.612,1.099 -11.577,0.843 -17.072,2.354c-5.141,5.416 -8.967,11.656 -15.109,16.189c-3.473,2.433 -3.924,5.946 -5.985,9.399c-2.198,1.511 -4.65,2.688 -7.005,3.964c-0.824,5.023 -2.374,10.478 -1.923,15.561c0.844,3.394 2.472,6.671 3.866,9.87c6.436,-1.55 12.95,-2.904 19.347,-4.631c3.277,-2.551 5.22,-6.829 8.163,-9.851c5.455,-6.907 12.264,-10.635 13.304,-20.172c6.908,-2.394 9.537,-8.83 15.954,-11.911c5.415,-3.728 10.262,-7.829 16.051,-11.067c5.671,-6.397 11.224,-12.401 18.622,-17.189c3.335,-0.412 6.71,-0.393 10.066,-0.53c0.785,-4.003 1.648,-7.986 2.551,-11.97c4.376,-0.157 8.752,-0.274 13.127,-0.314c0.942,6.535 -2.335,12.009 -6.259,16.895c-4.553,2.944 -7.398,6.829 -10.969,10.754c-4.298,0.333 -8.379,-0.098 -12.696,0.647c-2.924,3.042 -3.787,6.691 -5.298,10.518c-5.906,1.216 -8.889,2.668 -13.324,6.829c-7.417,4.886 -13.049,10.321 -21.781,12.126c-0.549,4.219 -0.176,8.575 -2.884,12.088c-2.806,3.924 -4.631,8.359 -7.202,12.401c-3.964,0.667 -8.065,0.589 -12.068,0.824c1.394,6.456 3.297,12.775 4.926,19.172c6.946,2.884 12.597,4.101 20.191,4.12c6.24,-0.255 9.556,5.455 15.973,5.416c12.99,0.334 25.862,1.609 38.813,2.59c2.198,8.948 1.119,17.484 -0.529,26.393c-1.04,6.083 2.668,9.026 5.926,13.441c-1.727,4.592 -3.258,9.34 -5.397,13.775c-2.963,6.103 -11.283,9.438 -13.716,15.757c-1.432,5.455 -1.118,11.361 -2.688,16.816c-2.296,5.907 -8.124,11.911 -7.928,18.367c-0.235,11.479 0.746,23.233 -0.039,34.752c-0.157,3.002 -0.49,6.357 0.373,9.262c1.962,4.748 6.887,8.143 9.321,12.303c2.688,5.985 3.532,12.951 4.729,19.367c2.413,0.02 4.827,0.04 7.24,0.079c1.08,5.573 0.726,11.028 4.239,15.58c4.513,5.908 5.573,12.578 5.533,19.858c-5.258,-5.808 -6.926,-12.441 -15.56,-13.991c-0.569,-4.533 -1.374,-9.044 -2.198,-13.539c-2.492,-0.138 -4.965,-0.273 -7.456,-0.41c0.255,-6.085 0.765,-12.404 -0,-18.467c-2.905,-3.611 -7.261,-5.475 -11.362,-7.417c-0.255,-3.827 -0.294,-7.85 -1.217,-11.578c-1.942,-3.394 -4.591,-5.847 -7.279,-8.634c2.747,-10.36 2.354,-20.584 1.765,-31.16c-0.686,-11.048 3.69,-21.31 11.009,-29.415c5.69,-9.615 9.968,-20.191 15.227,-30.081c-2.002,-1.57 -4.042,-3.081 -5.965,-4.749c-4.121,-3.806 -5.122,-11.184 -9.733,-14.422c-2.63,-0.079 -5.279,0.216 -7.908,0.432c-1.55,6.141 -4.984,10.537 -8.359,15.717c-0.805,4.533 -0.648,9.301 -0.726,13.913c-3.297,0.843 -7.221,1.491 -10.067,3.394c-3.767,4.396 -2.943,11.911 -4.16,17.445c-0.588,5.847 -3.159,11.028 -4.317,16.718c-1.609,21.977 0.098,43.484 1.865,65.363c3.983,9.321 6.848,19.701 7.378,29.846c-4.867,-5.338 -7.28,-12.912 -9.753,-19.603c-4.317,-11.303 -2.472,-21.703 -4.081,-34.104c-1.708,-12.048 -1.649,-24.156 -1.374,-36.322c0.353,-7.613 3.395,-14.01 4.474,-21.525c1.04,-6.24 0.177,-12.618 0.922,-18.799c3.16,-3.669 6.593,-6.554 8.261,-11.302c3.022,-8.242 10.754,-14.796 16.385,-21.448c-1.942,-4.827 -4.042,-9.556 -6.044,-14.364c-7.338,0.785 -13.362,-2.276 -20.387,-3.689c-0.236,3.807 -0.412,7.634 -0.628,11.44c-2.61,0.707 -5.318,1.315 -7.869,2.277c-4.336,5.357 -7.299,11.832 -11.165,17.542c-3.669,5.141 -2.963,12.598 -4.101,18.642c-1.786,3.355 -5.004,5.984 -7.143,9.183c-1.099,5.239 -0.628,10.773 -1.511,16.09c-1.589,10.067 -6.358,19.819 -8.85,29.689c-0.608,9.674 2.041,20.035 5.593,29.002c2.865,7.732 3.983,15.659 4.964,23.763c2.1,5.926 7.3,10.832 10.302,16.366c1.963,6.416 1.688,13.559 3.042,20.152c2.433,5.612 5.69,10.91 8.83,16.149c1.903,3.12 6.672,4.494 8.104,7.908c2.924,6.417 5.671,13.442 9.733,19.23c4.081,2.767 8.32,4.749 11.479,8.693c4.552,4.631 6.711,10.341 9.949,15.816c3.021,1.628 6.495,2.374 9.556,3.964c5.259,2.629 9.438,6.691 14.991,8.849c7.535,2.885 12.775,11.911 20.624,14.266c7.358,2.08 12.264,6.927 18.464,10.949c5.77,3.905 12.402,3.258 17.641,7.987c6.005,4.748 11.263,7.28 18.936,8.457c3.297,-12.029 6.181,-25.215 7.064,-37.636c-6.75,-0.962 -13.618,-1.079 -20.329,-2.178c-3.395,-1.59 -5.2,-7.084 -7.378,-10.086c-5.121,0.019 -10.263,0.137 -15.384,0.176c-3.434,-4.12 -5.239,-9.458 -10.577,-11.027c-8.378,-2.885 -14.795,-11.146 -21.741,-16.287c-7.221,-3.552 -14.011,-9.027 -18.563,-15.718c4.297,-0.235 8.614,-0.294 12.931,-0.275c3.238,4.985 5.965,6.731 11.459,8.889c0.393,3.552 0.805,7.084 1.335,10.597c3.512,0.215 7.025,0.412 10.537,0.569c2.767,3.826 4.18,7.339 9.321,8.339c6.887,1.276 8.202,8.399 15.462,8.516c6.378,0.55 11.028,4.926 17.484,5.083c6.731,0.51 10.871,6.161 17.7,5.906c4.277,0.118 8.633,-3.022 12.46,-4.729c3.453,8.909 6.436,14.54 13.167,21.467c-8.497,-1.55 -16.326,-2.237 -24.96,-2.021c0.706,10.596 0.333,20.27 -1.158,30.788c10.086,7.554 21.918,9.752 34.359,9.36c-2.786,0.785 -5.573,1.53 -8.398,2.178c-10.773,3.316 -20.153,-3.944 -31.828,-3.356c-0.236,8.046 -0.981,15.738 -2.296,23.665c4.415,2.198 8.811,4.749 13.481,6.377c4.886,1.217 10.576,-0.255 15.58,-0.647c1.393,3.493 2.767,7.005 4.16,10.498c3.042,1.236 6.063,2.492 9.066,3.866c-4.631,2.295 -9.301,4.493 -13.893,6.848c-5.122,3.041 -13.971,-0.864 -17.837,4.003c-3.493,2.472 -1.805,7.594 -2.139,11.361c5.632,-0.49 11.99,-2.923 17.484,-1.491c5.631,1.334 11.165,2.335 16.895,3.002c0.059,0.844 0.098,1.707 0.137,2.551c-7.496,1.747 -10.047,8.438 -17.013,10.596c-1.236,-3.08 -2.433,-6.161 -3.61,-9.242c-10.42,-0.294 -18.19,2.865 -25.097,10.636c-2.865,3.708 -6.633,5.867 -10.616,8.123c-0.844,2.708 -1.707,5.396 -2.571,8.085c4.631,0.549 9.635,0.785 14.07,2.237c4.179,2.178 7.868,6.927 12.597,7.456c10.341,0.923 20.859,0.354 31.259,0.55c-0.255,1.334 -0.51,2.668 -0.746,4.003c-4.709,1.746 -9.085,4.121 -13.696,6.083c-10.224,1.256 -20.466,-7.457 -30.435,-7.476c-6.809,-0.216 -13.637,-0.059 -20.446,-0.157c-2.983,5.749 -6.083,11.027 -6.515,17.679c6.868,2.65 10.321,7.516 15.384,12.323c7.986,-1.569 13.697,-6.436 22.35,-4.611c7.751,1.923 15.247,3.552 23.272,3.807c-1.314,4.69 -2.747,9.321 -4.218,13.971c-6.338,-0.902 -11.931,-1.354 -18.034,0.981c-6.887,2.846 -10.969,-2.001 -17.778,-1.825c-10.556,0.314 -21.408,-0.549 -31.847,1.197c-0.432,-2.256 -0.863,-4.493 -1.295,-6.75c-4.906,-0.706 -10.989,-0.726 -15.286,-3.414c-4.258,-2.63 -8.83,-4.396 -13.363,-6.417c-3.277,-2.452 -5.102,-5.533 -9.38,-6.24c-9.124,-1.569 -17.209,-5.651 -26.176,-7.633c-3.846,-0.824 -6.495,-5.376 -9.537,-7.731c-4.925,-1.609 -10.694,-1.315 -15.855,-1.59c-2.119,-2.374 -3.983,-6.239 -7.005,-7.456c-3.983,-0.628 -8.084,-0.667 -12.107,-0.962c1.295,-3.375 2.688,-6.71 4.14,-10.027c4.435,0.609 9.027,0.962 13.344,2.12c6.259,2.256 10.243,9.929 16.443,12.146c6.201,0.51 12.932,-1.197 19.132,-1.982c1.943,2.767 3.434,7.986 6.672,9.301c4.867,0.51 9.811,0.294 14.697,0.471c2.316,3.925 4.494,7.928 6.574,12.009c3.512,-0.196 7.025,-0.392 10.537,-0.569c1.55,2.492 3.101,4.984 4.69,7.457c6.181,-2.394 12.382,-4.376 18.857,-5.828c-0.765,-9.38 0.824,-17.464 3.14,-26.432c-8.497,-1.903 -16.817,-2.296 -25.47,-2.237c-1.904,-2.394 -3.689,-4.906 -5.789,-7.123c-6.495,-4.376 -14.56,-4.474 -22.075,-4.768c-0.353,-3.336 -0.707,-6.652 -1.079,-9.968c-7.261,-0.334 -14.56,0.235 -21.781,-0.373c-3.532,-0.765 -5.161,-5.573 -7.163,-8.242c-2.433,-0.392 -4.984,-0.608 -7.339,-1.334c-3.139,-2.649 -6.043,-5.534 -9.183,-8.143c0.569,-1.237 1.158,-2.473 1.727,-3.709c3.689,2.492 6.75,5.926 11.165,6.632c4.886,1.119 9.341,2.591 13.736,5.004c5.298,2.826 10.361,2.041 16.051,3.199c5.848,3.414 9.105,8.477 16.012,10.066c7.594,1.746 13.461,6.318 20.427,9.38c10.557,3.63 20.8,3.924 31.808,4.297c0,-3.768 -0.667,-8.281 0.687,-11.832c1.943,-1.217 4.062,-2.218 6.122,-3.258c0.413,-2.355 0.844,-4.69 1.276,-7.025c-8.026,-1.04 -15.737,-3.493 -23.684,-4.945c-4.141,-2.609 -7.163,-7.535 -12.108,-8.732c-3.963,-0.883 -8.006,-1.314 -12.009,-1.923c-1.04,-2.374 -2.08,-4.748 -3.139,-7.123c-2.473,2.08 -4.906,4.2 -7.359,6.28c-5.062,-3.631 -8.83,-7.771 -15.168,-9.145c-7.633,-2.747 -17.209,-1.805 -22.173,-8.653c-5.2,-6.868 -12.735,-11.401 -17.935,-18.386c-0.334,-2.375 -0.589,-4.769 -0.746,-7.182c9.831,5.2 17.444,12.99 25.98,19.917c4.886,3.218 10.616,5.317 16.071,7.397c6.515,2.532 14.011,0.883 20.8,3.042c5.259,2.041 8.673,6.848 14.01,8.83c4.258,1.648 8.399,3.395 12.539,5.337c4.396,2.355 10.479,0.844 15.11,2.414c3.551,1.334 6.809,3.414 10.36,4.592c6.495,-1.511 12.932,-3.493 19.152,-5.848c-2.983,-5.612 -5.377,-11.656 -8.83,-16.993c-9.419,-5.71 -21.762,-3.65 -30.788,-4.866c-3.081,-1.806 -5.416,-5.024 -7.829,-7.594c-3.591,0.019 -7.241,0.235 -10.832,-0.079c-4.827,-1.511 -7.221,-7.594 -9.713,-11.558c-4.062,0.275 -8.104,0.628 -12.166,1.04c-2.178,-2.649 -4.18,-6.141 -7.123,-7.966c-3.12,-1.021 -6.377,-1.609 -9.556,-2.414c-1.551,-2.394 -2.944,-5.004 -4.788,-7.201c-3.886,-2.021 -8.516,-2.924 -12.186,-5.298c-2.158,-2.669 -3.924,-5.671 -5.789,-8.536c-3.021,0.51 -6.024,1.04 -9.026,1.53c-3.826,-5.023 -6.868,-10.184 -9.792,-15.757c-9.929,-10.321 -14.54,-23.998 -23.704,-35.085c-8.869,-10.969 -19.014,-22.173 -30.885,-29.944c-0.334,-4.12 -0.746,-8.241 -1.197,-12.362c-2.08,-1.256 -4.298,-2.433 -6.201,-3.924c-1.668,-5.142 -2.826,-10.44 -4.651,-15.541c-3.61,-0.138 -7.201,-0.236 -10.792,-0.334c-0.196,-6.711 0.137,-13.422 -0.157,-20.133c-0.157,-4.884 -3.14,-9.044 -4.121,-13.736c-1.962,-31.945 -3.277,-65.853 -2.099,-97.877c3.571,-7.456 4.709,-13.245 5.494,-21.447c-0,-4.808 5.749,-7.496 8.32,-11.205c1.55,-4.317 1.55,-8.967 2.472,-13.421c1.452,-3.65 5.416,-6.201 6.633,-9.91c0.922,-4.611 1.216,-9.183 2.708,-13.716c2.806,-3.081 6.985,-4.925 9.889,-7.869c3.729,-10.086 5.161,-20.721 3.631,-31.396c-2.492,-1.589 -7.673,-3.61 -9.694,-0.431c-6.22,9.477 -13.206,18.366 -21.526,26.078c-4.336,7.672 -5.435,16.385 -10.498,23.939c-2.884,16.071 -13.206,28.61 -16.856,44.485c-3.08,12.735 -9.085,27.236 -6.946,40.265c1.687,21.703 0.333,43.091 0.608,64.755c-0.333,7.044 6.535,10.478 6.103,17.522c0.569,6.556 -0.648,14.523 2.08,20.604c3.944,6.181 9.791,11.852 14.481,17.131c-5.455,-0.785 -10.753,-1.884 -16.071,-3.317c-2.825,-10.066 -3.316,-20.898 -6.848,-30.687c-2.512,-2.259 -5.749,-3.868 -8.653,-5.595c-0.57,-6.554 -0.805,-13.029 -0.157,-19.603c2.629,-29.649 0.058,-58.494 1.864,-88.183c2.197,-4.494 5.416,-8.34 7.319,-13.03c2.904,-6.338 3.414,-13.127 5.847,-19.544c4.376,-9.379 4.73,-20.682 6.986,-30.65c1.903,-3.552 5.494,-6.221 7.888,-9.458c2.708,-5.671 2.198,-11.636 6.574,-16.777c3.336,-3.788 5.043,-7.928 6.691,-12.618c3.846,-1.648 9.576,-2.629 11.146,-7.025c1.334,-4.317 1.687,-8.987 2.413,-13.441c-8.123,-2.59 -13.951,-5.22 -20.76,-10.42c-3.238,2.571 -5.985,5.789 -9.007,8.615c-0.667,-5.357 0.432,-11.46 -1.609,-16.464c-3.081,-8.28 -4.258,-16.973 -7.555,-25.195c-2.335,-6.044 -5.573,-11.401 -8.967,-16.895c2.766,-0.962 5.533,-1.982 8.28,-3.002c0.334,-5.377 0.55,-10.734 0.687,-16.11c3.199,0.274 6.397,0.628 9.596,0.981c3.63,-5.514 7.358,-10.969 11.126,-16.385c3.924,-0.451 7.849,-0.805 11.773,-1.099c1.492,-4.788 2.826,-10.321 5.71,-14.462c2.571,-2.629 6.868,-3.296 9.419,-6.122c4.239,-4.376 8.811,-8.379 12.971,-12.833c3.198,-3.964 8.28,-3.826 12.872,-4.965c0.648,-2.433 1.275,-4.866 1.943,-7.299c2.59,-0.589 5.317,-1.021 7.79,-1.982c2.924,-3.689 4.454,-7.202 9.34,-8.614c5.004,-1.511 6.711,-5.279 9.399,-9.301c4.965,-0.197 10.381,1.059 14.58,-2.198c3.63,-3.984 5.867,-9.38 8.909,-13.854Z" style="fill-rule:nonzero;"/><path d="M954.094,751.485c0.216,3.473 0.393,6.946 0.589,10.419c-2.924,-0.432 -5.887,-1.02 -8.85,-1.118c-3.473,2.237 -6.397,5.533 -9.242,8.516c-1.648,4.003 -0.942,9.301 -4.867,11.636c-3.492,-0.51 -6.985,-1.55 -10.419,-2.394c-1.001,3.885 -1.727,7.888 -3.061,11.656c-2.061,3.139 -4.651,5.906 -6.868,8.928c-3.552,0.314 -7.104,0.648 -10.636,0.981c-1.589,4.847 -3.1,9.713 -4.63,14.56c-1.708,0.196 -3.395,0.412 -5.102,0.609c1.805,-4.2 3.375,-8.438 4.905,-12.736c4.082,-8.28 6.535,-16.169 16.64,-18.386c1.904,-6.828 6.554,-11.322 10.459,-16.973c2.669,-4.631 8.654,-4.455 13.304,-6.024c1.452,-2.571 2.865,-5.299 4.651,-7.634c4.219,-1.177 8.791,-1.589 13.127,-2.04Z" style="fill-rule:nonzero;"/><path d="M951.759,800.168c4.572,3.532 -0.314,11.421 -0.765,16.267c-4.867,0 -9.733,0.177 -14.599,0.216c3.826,-4.552 7.221,-9.026 10.419,-14.03c1.59,-0.922 3.218,-1.746 4.945,-2.453Z" style="fill-rule:nonzero;"/><path d="M849.918,828.169c5.71,3.062 5.043,10.852 4.631,16.326c-0.177,6.927 -7.908,9.929 -9.635,16.837c-0.922,5.298 -0.765,10.517 -2.531,15.698c-1.962,5.514 -6.22,9.399 -9.458,14.01c-1.432,6.495 0.02,13.716 -0.726,20.349c-1.59,6.22 -5.71,10.753 -5.828,17.523c-0.039,9.752 0.373,19.583 0.785,29.335c0.275,7.477 5.71,12.539 5.592,19.878c0.177,11.185 1.138,22.291 2.237,33.398c1.766,2.57 6.554,2.374 9.36,3.257c1.786,5.573 2.865,11.263 4.101,16.956c0.923,4.531 4.023,7.729 5.612,11.968c1.197,3.983 1.786,8.241 2.434,12.342c2.943,1.315 7.319,1.236 8.575,4.572c4.552,9.203 10.988,16.777 14.147,26.746c3.081,-0.216 6.182,-0.589 9.282,-0.609c7.143,6.495 9.478,14.482 11.891,23.469c3.513,0.157 7.123,-0.02 10.596,0.589c4.219,2.276 8.085,5.121 12.363,7.319c3.885,1.609 5.082,6.495 8.339,9.144c4.592,1.923 9.203,3.591 13.618,5.946c3.552,1.824 8.222,2.04 11.205,4.67c5.337,4.65 11.145,8.928 17.209,12.617c7.554,2.767 15.423,4.965 22.919,7.947c4.317,3.885 5.788,9.988 4.258,15.502c-3.061,5.023 -7.83,7.947 -12.362,11.558c-1.649,-1.335 -3.277,-2.689 -5.004,-3.944c-4.18,-3.827 -11.42,-2.1 -16.738,-2.571c-2.021,-3.787 -3.356,-10.969 -8.143,-11.97c-6.554,-3.022 -15.561,1.099 -22.468,-0.078c-5.907,-4.474 -9.066,-5.652 -16.483,-5.907c-1.04,-2.884 -2.1,-5.749 -3.179,-8.614c-2.924,-1.001 -5.946,-1.903 -8.771,-3.198c-3.532,-3.042 -5.239,-7.457 -9.243,-10.165c-5.396,-4.709 -11.891,-7.79 -17.11,-12.637c-2.846,-2.669 -6.201,-4.297 -9.576,-6.201c-0.353,-4.572 -0.824,-9.124 -1.393,-13.696c-4.376,-2.296 -8.615,-4.297 -11.99,-8.065c-2.688,-3.454 -3.198,-8.32 -5.808,-11.754c-5.141,-5.73 -10.459,-10.753 -17.601,-13.932c-1.708,-7.162 -2.12,-15.09 -6.025,-21.192c-3.924,-5.396 -2.099,-13.913 -2.727,-20.366c-4.239,1.136 -8.399,2.49 -12.716,3.335c-1.216,-9.126 0.256,-18.918 -2.178,-27.767c-2.865,-3.003 -6.514,-3.945 -7.515,-8.222c-4.611,-18.367 -2.296,-35.125 -3.002,-53.845c0.117,-11.636 -2.1,-21.408 0.628,-32.73c1.275,-5.063 5.376,-9.517 5.71,-14.697c0.628,-7.32 1.825,-15.031 4.435,-21.938c1.864,-3.454 5.592,-5.946 7.907,-9.125c1.668,-3.669 1.256,-8.732 3.415,-12.342c1.805,-2.159 4.022,-4.023 6.063,-5.926c-0.118,-4.553 -0.157,-9.105 -0.216,-13.638c6.456,-5.2 12.598,-8.359 21.114,-6.162Z" style="fill:#fff;fill-rule:nonzero;"/><path d="M742.995,847.086c-0.294,3.355 -0.491,6.789 -1.217,10.086c-2.198,4.552 -6.318,8.3 -9.634,12.048c-0.491,-4.141 -1.178,-8.497 -1.04,-12.676c3.1,-3.886 7.849,-6.633 11.891,-9.458Z" style="fill-rule:nonzero;"/><path d="M487.529,867.886c4.435,-0.471 8.967,-0.334 13.441,-0.452c0.609,7.005 2.178,13.795 3.415,20.682c0.942,4.553 -1.04,9.615 -1.904,14.168c-2.845,11.165 -0.922,22.899 -2.551,34.594c-1.668,11.323 0.923,21.762 1.806,32.947c10.655,-4.062 20.839,-0.275 30.748,-6.554c-4.14,-9.301 -3.944,-18.544 -4.199,-28.492c-0.079,-9.007 -4.768,-16.444 -4.239,-25.392c0.157,-9.379 4.926,-18.779 6.162,-28.099c0.471,-4.533 0.471,-9.105 0.648,-13.657c3.649,-0 7.319,-0 10.986,0.019c0.198,10.694 1.217,21.408 0.885,32.083c-0.235,5.769 -4.984,11.361 -4.866,17.405c-0.098,16.719 0.333,33.319 0.804,50.018c9.182,0.275 15.757,3.414 23.312,8.183c-1.121,-9.38 -3.316,-19.309 -2.433,-28.728c0.684,-6.711 5.2,-12.617 4.945,-19.465c-0.275,-13.285 -0.571,-26.53 -2.416,-39.716c-0.43,-7.025 -1.666,-14.855 4.927,-19.525c6.142,-0.687 12.441,-0.274 18.583,-0.137c-2.453,2.374 -5.848,4.434 -7.575,7.417c-1.962,17.445 -2.747,34.438 -2.001,52.02c0.667,7.77 -2.551,14.108 -4.101,21.467c1.158,9.32 5.769,17.974 6.573,27.491c2.277,13.245 -2.197,25.803 -0.176,38.894c1.786,3.863 7.339,5.376 10.812,7.435c1.158,8.989 0.118,16.424 -2.316,25.038c-6.416,0.02 -12.813,-0.02 -19.21,-0.294c-3.591,-16.128 0.432,-34.379 -3.416,-50.744c-1.45,-5.632 -1.293,-11.833 -6.709,-15.188c-6.397,-1.845 -12.853,-0.608 -18.504,2.767c-0.668,8.32 0.51,16.326 3.041,24.253c1.099,12.912 -0.216,26.118 0.471,39.108c-3.1,0.059 -6.201,0.098 -9.321,0.157c-0.667,-11.342 -1.923,-22.603 -2.923,-33.908c-0.628,-5.553 -3.474,-10.616 -3.886,-16.11c-0.333,-5.122 -0.961,-10.047 -2.08,-15.051c-7.652,0.687 -13.029,4.808 -19.485,8.477c0.334,14.05 0.216,28.08 0.432,42.13c-0.118,5.416 2.374,9.419 4.297,14.305c-5.945,0.098 -11.871,0.098 -17.817,0.059c-2.198,-8.889 -2.649,-17.209 -2.394,-26.334c0.471,-10.517 -3.336,-19.053 -6.26,-28.923c-7.927,-0 -15.855,0.215 -23.782,0.333c0.902,18.19 -0.746,36.989 2.57,54.904c-3.865,0.02 -7.731,0.02 -11.597,0c-1.098,-4.081 -2.119,-8.124 -2.158,-12.382c-0.471,-14.128 -0.039,-28.197 -1.688,-42.286c-6.593,0.196 -13.186,0.353 -19.759,0.49c0.058,10.027 0.078,20.037 0.196,30.062c0.019,8.457 2.629,15.933 4.552,24.116c-5.337,0.059 -10.674,0.039 -16.012,-0.039c-1.707,-18.169 0.53,-34.593 -6.927,-51.863c-10.87,-3.492 -20.309,0.099 -29.335,-6.338c2.413,19.643 3.002,38.519 3.061,58.299c-2.041,-0.02 -4.082,-0.059 -6.122,-0.098c-1.178,-8.889 -3.179,-17.072 -2.571,-26.157c0.805,-9.713 0.491,-19.426 0.353,-29.159c-7.888,2.472 -15.776,4.513 -24.077,4.964c1.472,16.797 4.102,33.557 5.024,50.411c-4.945,0.019 -9.89,0.059 -14.835,0.117c0.314,-10.419 -3.316,-19.995 -3.669,-30.336c-0.275,-7.143 -0.275,-14.285 -0.53,-21.428c-4.847,-1.295 -9.556,-2.708 -13.952,-5.18c4.337,-1.727 8.673,-3.101 13.226,-4.16c-0.432,-19.878 -1.001,-39.736 -1.354,-59.594c-0.314,-6.436 4.356,-12.244 5.553,-18.641c2.649,-12.99 0.157,-26.962 1.393,-40.58c3.964,-0.058 7.908,-0.098 11.872,-0.117c-1.158,24.273 -4.808,48.879 -4.297,73.29c-0.04,6.358 4.022,11.126 3.885,17.601c0.333,5.985 -2.551,10.439 -3.316,16.189c-0.353,3.375 -0.275,6.828 -0.295,10.223c8.929,-2.629 15.993,-3.277 25.156,-1.491c-2.335,-14.678 -2.276,-29.787 -1.609,-44.602c4.239,-22.723 -1.255,-48.841 5.181,-70.995c4.807,-0.137 9.615,-0.196 14.422,-0.255c-0.039,4.69 0.138,9.694 -0.824,14.266c-1.962,6.083 -6.75,10.89 -8.614,17.229c-3.12,15.462 -2.688,30.12 -2.414,45.799c0.255,8.123 3.336,15.56 3.846,23.507c0.432,5.063 -0.098,10.047 -0.667,15.071c9.007,0.156 17.052,-3.65 26.177,-2.924c-0.314,-4.592 -0.923,-9.242 -0.785,-13.854c0.431,-4.788 2.453,-9.222 2.727,-14.148c0.687,-8.83 -3.65,-16.424 -2.727,-25.352c2.531,-20.133 8.575,-39.029 8.496,-59.515c3.768,-0 7.516,0.02 11.264,0.039c-0.02,4.768 -0,9.537 -0.295,14.285c-1.726,18.151 -0.745,36.675 -1.256,54.884c-0.274,6.672 -3.767,13.246 -4.356,19.937c-0.333,9.085 0.962,17.974 2.963,26.804c7.241,-0.922 14.285,-2.08 21.094,-4.768c-0.235,-30.356 -0.353,-60.732 -0.706,-91.088c-0.196,-6.907 1.609,-14.108 5.396,-19.917c4.455,-0.372 9.007,-0.176 13.481,-0.098c-1.57,8.477 -7.614,17.052 -6.318,25.569c1.628,13.931 3.453,27.55 3.316,41.639c0.274,8.182 -0.805,15.364 1.55,23.017c2.178,7.456 -0,13.814 -2.041,20.957c6.927,-0.412 13.697,-0.393 20.623,0.157c1.531,-9.419 2.277,-18.936 2.355,-28.492c-0.098,-6.103 -3.395,-11.264 -2.924,-17.582c-0.039,-6.142 3.003,-11.42 2.846,-17.562c0.353,-15.895 -2.904,-32.476 3.728,-47.506Z" style="fill-rule:nonzero;"/><path d="M620.884,867.042c0.137,6.613 0.471,13.402 -0.412,19.956c-1.178,5.808 -5.338,10.832 -7.006,16.601c-0.784,4.258 -0.667,8.732 -0.784,13.049c-0.197,21.8 -0.334,43.581 -0.275,65.362c0.294,7.437 -1.688,13.814 2.649,20.349c4.376,7.417 3.022,14.619 3.395,22.821c-0.118,8.381 1.177,15.874 -1.884,23.9c-3.238,-3.826 -6.515,-7.633 -9.674,-11.518c-0.746,-5.355 1.648,-11.381 2.551,-16.66c-3.199,-3.51 -7.947,-6.985 -9.635,-11.538c-1.432,-13.736 1.256,-27.452 0.569,-41.09c-1.55,-10.439 0.471,-20.113 1.805,-30.434c1.747,-10.478 0,-20.015 -0.824,-30.356c-0.078,-8.811 -0.353,-17.759 0.412,-26.53c1.963,-3.885 5.868,-6.927 8.595,-10.321c2.786,-3.689 6.436,-2.806 10.518,-3.591Z" style="fill-rule:nonzero;"/><path d="M237.969,867.591c13.815,0.04 27.649,-0.039 41.463,0.059c-2.747,25.568 -4.572,51.352 -4.376,77.077c-0.02,20.84 -0.157,42.012 1.903,62.753c0.354,13.444 2.826,26.591 3.042,40.03c-17.072,0.02 -34.163,0.04 -51.235,0c-0.039,15.522 0.099,31.102 -0.314,46.663c-2.06,-14.776 -3.335,-29.67 -5.396,-44.445c-0.529,-5.2 -1.471,-10.852 -0.549,-16.03c3.709,-11.599 9.438,-22.566 13.284,-34.106c1.354,-21.82 -1.726,-44.68 -1.432,-66.756c0.353,-7.26 -2.355,-13.422 -4.101,-20.25c-1.374,-9.125 2.649,-19.407 6.063,-27.727c2.512,-5.651 1.491,-11.146 1.648,-17.268Z" style="fill-rule:nonzero;"/><path d="M299.486,868.729c4.16,-1.413 9.066,-1.138 13.442,-1.354c1.295,10.165 1.687,19.996 1.609,30.239c1.432,12.342 1.098,24.763 -1.06,37.008c-0.981,5.514 -4.984,10.498 -4.984,16.012c-0.393,32.122 2.884,64.931 6.515,96.817c-4.612,0.059 -9.243,0.079 -13.854,0.138c-7.457,-59.182 -8.379,-119.58 -1.668,-178.86Z" style="fill-rule:nonzero;"/><path d="M660.05,867.473c-0.274,7.084 -0.137,14.658 -1.825,21.566c-0.49,3.963 -5.651,5.651 -8.516,7.79c0.255,11.93 -0.255,23.92 0.373,35.831c1.295,8.614 3.591,16.914 3.67,25.725c0.098,13.068 1,25.411 -1.099,38.323c-0.824,9.183 -1.511,18.641 -0.628,27.824c4.493,8.517 6.22,14.972 5.592,24.784c-2.296,-2.551 -4.395,-5.259 -6.436,-8.026c-3.14,-0.02 -6.26,-0.039 -9.399,-0.039c-2.649,-20.741 -0.726,-42.267 -1.236,-63.185c-0.766,-9.458 3.178,-18.013 2.276,-27.452c-1.099,-18.916 -0.805,-37.95 -0.981,-56.984c-0.079,-8.025 0.392,-15.659 3.296,-23.213c2.002,-4.631 10.832,-2.198 14.913,-2.944Z" style="fill-rule:nonzero;"/><path d="M681.164,867.729c7.182,-0.236 14.344,-0.628 21.526,-0.923c0.177,4.396 0.648,8.87 0.334,13.245c-2.061,6.711 -5.966,12.029 -5.554,19.407c0.511,7.496 1.531,14.678 5.004,21.408c2.237,4.455 3.709,8.831 2.394,13.834c-2.119,5.043 -5.533,9.557 -7.554,14.619c-2.179,5.71 -1.374,12.873 -1.708,18.955c0,4.867 -0.785,9.91 -0.117,14.737c2.099,4.474 5.69,7.358 5.474,12.578c0.354,17.425 3.493,34.732 4.455,52.118c-7.496,0.274 -13.049,-0.942 -19.917,-3.67c0.039,-11.558 0.588,-23.135 0.49,-34.712c0.177,-5.318 -3.669,-8.987 -4.238,-14.03c-1.04,-12.833 -2.414,-25.647 -4.297,-38.402c-0.55,-4.964 -2.002,-10.596 -1.099,-15.56c1.059,-4.612 4.552,-7.28 6.966,-11.303c1.216,-6.711 0.686,-13.834 0.706,-20.623c-0.49,-14.207 0.805,-27.766 -2.865,-41.678Z" style="fill-rule:nonzero;"/><path d="M731.79,870.417c1.256,6.122 3.081,12.617 3.022,18.896c-1.314,7.123 -6.907,12.049 -6.201,19.956c1.609,30.357 -1.707,59.869 2.807,90.186c1.452,4.081 5.69,6.985 8.261,10.537c1.589,8.499 -0.099,17.621 1,26.216c1.276,3.944 3.513,7.613 5.2,11.4c-3.591,0.04 -7.182,0.059 -10.772,0.079c-4.376,-7.731 -12.029,-11.774 -12.049,-20.408c-0.039,-18.209 -0.745,-36.321 -2.57,-54.432c-1.374,-7.614 -4.533,-15.306 -5.24,-23.018c-0.215,-6.357 6.28,-12.323 5.828,-18.72c0.177,-13.814 -0.372,-27.667 0.157,-41.482c-0.274,-7.28 6.535,-13.677 10.557,-19.21Z" style="fill-rule:nonzero;"/><path d="M940.025,943.354c6.122,4.807 12.205,9.909 17.503,15.6c2.08,7.299 1.413,15.502 4.415,22.762c2.002,5.808 6.436,8.281 10.027,13.147c3.513,5.239 9.36,7.496 12.578,12.951c3.964,7.319 12.382,8.438 17.975,14.697c1.138,-1.668 2.276,-3.336 3.414,-5.002c4.748,8.181 9.674,16.266 14.285,24.527c-4.925,-0.079 -9.968,0.372 -14.835,-0.255c-2.551,-1.217 -4.807,-3.572 -7.574,-4.141c-3.571,-0.196 -7.182,0.02 -10.773,0.059c-1.805,-2.355 -3.453,-4.965 -5.612,-7.005c-2.629,-0.903 -5.985,0.019 -8.732,0.041c-1.766,-4.633 -3.512,-9.244 -5.357,-13.816c-2.551,-0.726 -5.121,-1.372 -7.554,-2.276c-1.943,-3.925 -2.728,-8.399 -4.788,-12.225c-2.551,-1.747 -5.436,-3.022 -8.144,-4.494c-0.215,-4.336 -0.117,-8.751 -0.667,-13.088c-1.766,-3.984 -6.083,-6.417 -5.828,-10.891c-0.412,-10.086 -0.588,-20.505 -0.333,-30.591Z" style="fill-rule:nonzero;"/><path d="M890.753,1017.47c1.51,4.003 2.688,8.045 3.649,12.225c3.199,1.805 7.339,2.708 8.418,6.672c1.139,5.219 0.609,10.851 0.942,16.169c2.689,-0.981 5.357,-2.002 8.006,-3.081c2.021,2.178 4.101,4.297 6.181,6.417c-3.689,1.275 -7.554,2.59 -11.42,3.198c-5.573,-4.827 -8.653,-12.382 -11.204,-19.073c-2.865,-4.925 -7.064,-8.614 -8.595,-14.501c0.942,-2.806 2.59,-5.455 4.023,-8.026Z" style="fill-rule:nonzero;"/><path d="M949.149,1041.6c3.101,1.118 6.593,2.1 9.301,4.003c2.59,2.512 4.121,6.299 5.828,9.438c-5.749,-3.002 -11.028,-6.142 -17.425,-7.672c0.687,-1.943 1.374,-3.905 2.296,-5.769Z" style="fill-rule:nonzero;"/><path d="M967.006,1053.16c4.611,2.413 8.693,5.337 13.755,6.809c4.906,1.295 7.574,7.437 11.381,10.635c12.362,4.278 24.293,9.556 36.734,13.657c-0.452,-9.006 -2.904,-17.307 -1.217,-26.412c4.042,7.378 3.159,14.953 4.945,22.861c1.491,2.708 4.67,4.434 6.927,6.534c-5.966,1.805 -8.379,3.355 -11.97,8.379c-2.453,-3.258 -4.827,-7.084 -8.065,-9.596c-3.493,-1.648 -8.183,-0.628 -12.009,-1.295c-2.865,-1.628 -5.377,-3.708 -8.261,-5.357c-3.356,-0.902 -6.927,-1.099 -10.361,-1.609c-2.276,-3.65 -4.454,-7.358 -6.769,-10.969c-4.004,-0.53 -8.046,-0.902 -12.088,-1.236c-1.884,-3.787 -3.964,-7.496 -5.769,-11.322l2.767,-1.079Z" style="fill-rule:nonzero;"/><path d="M49.475,1072.04c1.374,20.31 1.864,40.6 2.394,60.948c2.375,30.278 3.434,60.614 6.848,90.833c1.708,19.269 3.591,38.715 5.357,58.024c8.438,76.626 19.132,153.095 33.221,228.897c-13.304,0.098 -26.608,0.019 -39.892,0.078c-3.709,-24.234 -8.499,-49.037 -8.126,-73.565c-0.018,-93.54 0,-187.061 0,-280.602c-0.118,-28.217 0.981,-56.395 0.198,-84.613Z" style="fill-rule:nonzero;"/><path d="M837.595,1286.3c5.985,1.57 12.107,3.277 17.798,5.749c1.942,2.649 3.394,5.711 4.964,8.595c8.144,2.041 15.423,1.158 20.211,9.301c3.748,-0.51 7.516,-0.981 11.283,-1.432c1.629,2.884 3.218,5.788 4.867,8.673c5.808,0.059 11.656,-0.412 17.444,-0.039c2.865,2.021 3.63,6.711 5.024,9.791c9.026,-0.098 18.052,-0.49 27.079,-0.51c0.157,4.121 0.294,8.222 0.471,12.343c12.166,-0.432 24.41,0.137 36.478,-1.433c3.002,2.728 6.279,7.359 10.361,8.34c7.338,0.667 14.874,-0.275 22.252,-0.314c-1.276,2.139 -2.532,4.278 -3.807,6.416c-14.207,2.002 -28.61,3.415 -42.934,4.18c-2.767,-1.452 -4.219,-5.259 -6.142,-7.653c-8.555,-0.176 -17.072,0.098 -25.607,-0.745c-2.453,-3.591 -4.73,-7.673 -7.849,-10.734c-6.81,-1.04 -13.952,-0.51 -20.82,-0.471c-1.825,-3.238 -3.65,-6.456 -5.592,-9.615c-5.554,-0.746 -11.539,-0.942 -16.876,-2.747c-3.395,-1.903 -6.201,-4.866 -9.517,-6.809c-6.161,-1.295 -12.931,-0.157 -18.955,-1.864c-1.609,-2.551 -2.904,-5.338 -4.278,-8.026c-4.807,-0.059 -9.595,-0.059 -14.403,-0.019c-1.373,-3.003 -2.629,-6.123 -4.278,-8.988c-3.002,-0.804 -6.22,-1.079 -9.301,-1.53c4.101,-3.414 8.006,-7.064 12.127,-10.459Z" style="fill-rule:nonzero;"/><path d="M801.588,1313.69c6.75,5.259 14.344,4.513 18.013,12.912c3.63,-0.334 7.673,-1.276 11.264,-0.55c4.356,1.904 7.652,4.886 12.44,5.985c3.473,1.06 7.81,1.707 10.734,3.944c1.982,3.591 3.12,7.614 5.043,11.224c4.866,2.649 11.028,2.002 16.267,3.179c2.727,2.257 5.063,5.082 7.456,7.692c3.768,-0.431 7.575,-1.079 11.362,-1.138c4.003,1.433 7.103,4.847 11.087,6.397c7.221,1.197 16.286,0.137 23.468,2.571c4.101,2.021 7.692,5.612 11.911,7.28c4.67,1.197 9.988,0.176 14.776,0.314c7.672,-0.197 14.285,3.532 21.487,5.435c3.689,-0.118 7.358,-1.197 10.988,-1.864c1.315,1.727 2.649,3.434 3.984,5.161c-3.042,3.846 -5.848,8.261 -9.557,11.518c-6.357,0.098 -7.908,-4.493 -11.263,-8.791c-4.827,0.432 -8.202,1.021 -12.362,-2.041c-8.575,-5.612 -17.464,-1.314 -26.785,-1.432c-6.966,-2.826 -14.226,-4.474 -20.898,-8.065c-4.67,-2.904 -11.46,-0.255 -16.679,0.079c-1.59,-2.767 -3.179,-5.554 -4.808,-8.301c-3.728,0.157 -7.437,0.393 -11.145,0.726c-1.727,-3.198 -3.415,-6.416 -5.082,-9.634c-5.495,0.078 -11.009,0.078 -16.503,-0.059c-2.237,-3.552 -4.611,-8.026 -8.418,-10.106c-4.847,-0.53 -9.811,-0.235 -14.678,-0.255c-0.53,-3.395 -1.02,-6.809 -1.53,-10.204c-5.73,1.021 -11.381,2.414 -17.17,3.042c-1.962,-3.356 -3.807,-6.77 -5.632,-10.204c-4.101,-0.157 -8.418,-0.039 -12.44,-0.863c-2.237,-3.022 -3.984,-6.476 -5.789,-9.753c3.473,-1.491 6.868,-3.002 10.459,-4.199Z" style="fill-rule:nonzero;"/><path d="M765.934,1327.7c0.157,2.609 0.274,5.239 0.353,7.849c5.965,2.825 11.028,6.102 16.149,10.262c2.08,-1.55 4.16,-3.061 6.24,-4.572c0.432,2.708 0.844,5.436 1.256,8.163c2.315,1.354 4.886,2.551 6.927,4.297c1.177,2.473 2.04,5.122 2.982,7.692c4.16,-0.019 8.772,-0.569 12.814,0.471c2.551,3.042 4.435,6.809 6.456,10.243c4.474,0.55 8.948,0.844 13.421,1.119c2.198,3.375 4.396,6.75 6.594,10.125c4.297,-0.235 8.575,-0.549 12.852,-0.903c1.217,3.258 2.453,6.515 3.788,9.733c10.517,-1.393 19.387,-5.043 30.179,-2.374c1.825,3.434 2.865,7.201 4.651,10.675c4.944,0.314 9.948,-0.275 14.854,0.215c2.747,2.414 4.807,5.652 7.712,7.869c7.613,0.805 15.148,1.256 22.605,3.199c5.16,0.745 8.575,5.867 13.716,6.652c3.179,0.529 6.475,0.745 9.693,1.02c-4.042,3.885 -8.065,8.065 -12.695,11.224c-4.455,0.118 -9.027,-1.923 -13.422,-2.669c-5.318,-1.197 -10.694,-0.608 -16.012,-1.432c-7.182,-4.847 -14.227,-9.419 -19.898,-16.091c-5.356,-0.431 -11.008,2.65 -16.424,3.003c-5.199,-2.159 -9.399,-7.123 -13.696,-10.675c-7.182,1.354 -14.501,4.199 -21.722,1.589c-5.318,-2.55 -8.595,-9.359 -12.853,-13.362c-3.866,-1.59 -7.986,-2.198 -11.813,-3.886c-3.63,-1.785 -6.632,-5.376 -9.85,-7.849c-3.63,-2.08 -9.321,-1.884 -12.657,-4.611c-2.453,-2.178 -4.435,-4.847 -6.848,-7.103c-4.356,-1.492 -9.517,-1.884 -13.54,-4.062c-5.043,-3.807 -9.163,-9.243 -14.52,-12.676c-4.514,-1.806 -9.046,-1.766 -12.696,-5.083c-5.553,-5.239 -11.931,-8.123 -15.443,-15.227c10.184,-1.471 20.545,-2.786 30.847,-2.825Z" style="fill-rule:nonzero;"/><path d="M243.287,1331.04c8.085,-0.392 16.228,-0.058 24.352,-0.157c3.885,8.517 7.162,17.249 10.655,25.922c21.84,53.354 47.898,104.961 78.431,153.88c-10.38,0.118 -20.761,0.216 -31.141,0.118c-1.629,0.098 -3.1,-0.197 -4.376,-0.844c-3.257,-4.023 -5.455,-9.007 -7.868,-13.559c-24.96,-47.369 -46.525,-96.563 -64.637,-146.934c-2.1,-5.887 -5.023,-12.186 -5.416,-18.426Z" style="fill-rule:nonzero;"/><path d="M394.283,1331.04c6.887,-0.255 13.892,-0.49 20.741,0.099c3.296,0.137 4.101,2.433 5.808,4.748c41.364,66.069 94.306,125.29 154.527,174.68c-13.853,0.334 -27.767,0.353 -41.639,0.157c-4.022,0.294 -6.397,-3.355 -9.124,-5.73c-49.626,-49.821 -92.717,-105.981 -127.331,-167.223c-1.138,-2.178 -2.158,-4.396 -2.982,-6.731Z" style="fill-rule:nonzero;"/><path d="M626.162,1331c11.126,-0.844 21.232,-0.216 30.572,6.378c5.436,5.906 11.165,11.793 15.482,18.582c1.786,2.472 4.984,3.944 7.378,5.789c4.043,2.806 6.868,7.653 10.44,11.067c3.708,3.022 8.889,4.179 12.735,7.005c3.218,3.218 5.062,8.575 10.125,9.066c5.828,0.765 11.656,1.334 17.444,2.433c0.609,3.12 1.256,6.22 1.943,9.34c4.729,0.609 9.419,1.354 14.128,2.119c0.02,5.161 0.079,10.322 0.157,15.483c4.611,1.412 9.321,2.59 13.893,4.199c4.964,1.727 8.575,5.573 13.108,7.751c5.867,0.804 12.558,-0.942 17.621,2.158c4.866,2.963 10.027,3.277 15.541,3.885c1.334,3.807 2.531,7.948 4.611,11.421c3.748,3.512 7.987,6.357 11.44,10.223c3.611,-1.295 7.221,-2.59 10.832,-3.905c2.04,2.041 4.003,4.278 6.299,6.005c5.474,0.176 10.988,-0.51 16.463,-0.746c0.196,2.414 0.392,4.808 0.608,7.202c5.337,-0.118 10.675,-0.177 16.032,0.117c0.863,4.043 1.884,8.026 3.022,12.009c-4.298,1.413 -7.712,3.513 -12.363,2.1c-7.868,-2.178 -18.366,1.53 -24.763,-3.591c-1.393,-2.885 -2.08,-6.22 -2.924,-9.301c-6.554,-0.432 -13.147,-0.353 -19.681,-0.922c-3.16,-2.12 -5.259,-5.711 -8.32,-7.928c-4.043,-1.844 -8.575,-2.826 -12.873,-3.944c-0.628,-3.552 -1.275,-7.084 -1.942,-10.635c-10.204,-2.551 -21.546,-3.866 -31.396,-7.614c-4.435,-2.865 -8.006,-6.515 -13.128,-8.32c-4.886,-1.472 -7.398,-5.239 -11.303,-8.104c-3.708,-1.256 -7.809,-1.472 -11.655,-2.119c-1.884,-3.513 -3.572,-7.241 -5.848,-10.518c-4.493,-2.453 -10.302,-2.217 -14.638,-4.807c-3.218,-2.944 -5.122,-6.378 -9.262,-8.242c-4.494,-2.1 -8.085,-4.572 -11.832,-7.81c-2.905,-2.668 -7.418,-2.649 -10.263,-5.18c-5.239,-5.279 -8.889,-13.029 -13.049,-19.014c-2.001,-3.552 -5.318,-0.098 -8.085,0.588c-2.472,-4.827 -4.454,-9.497 -9.065,-12.735c-3.532,-2.492 -4.827,-6.083 -6.829,-9.713c-2.001,-0.098 -4.081,-0.118 -6.063,-0.471c-2.139,-2.668 -3.473,-6.083 -4.592,-9.301Z" style="fill-rule:nonzero;"/><path d="M322.15,1331.96c2.983,-1.864 7.614,-0.883 11.008,-1.138c13.638,0.392 27.452,-0.648 40.992,0.824c36.93,66.147 84.004,126.33 138.476,178.957c-31.219,0.471 -62.458,0 -93.697,0.236c-1.551,-5.75 -3.042,-12.461 -6.81,-17.209c-5.71,-2.944 -12.911,-2.119 -18.994,-4.415c-3.689,-2.59 -5.75,-7.869 -7.928,-11.715c-9.772,-16.071 -3.218,-39.539 -7.103,-57.651c-1.805,-7.496 -3.336,-15.541 -6.888,-22.409c-3.453,-4.376 -7.554,-8.241 -11.204,-12.46c-4.16,-5.534 -10.106,-2.276 -15.757,-5.828c-6.515,-4.219 -13.912,-8.399 -18.916,-14.383c-4.513,-4.788 -2.531,-13.579 -3.414,-19.721c0.196,-3.905 -2.12,-9.752 0.235,-13.088Z" style="fill-rule:nonzero;"/><path d="M460.626,1331.04c3.611,0.766 5.122,4.239 7.202,6.947c44.877,66.736 101.547,125.054 166.419,172.541c-9.007,-0.295 -19.878,2.786 -27.04,-3.728c-9.949,-7.555 -21.134,-14.345 -29.65,-23.41c-21.957,-21.879 -43.935,-43.739 -65.99,-65.5c-7.143,-7.005 -12.225,-15.07 -18.249,-22.978c-15.738,-20.957 -31.181,-42.11 -46.859,-63.106c4.592,-0.51 9.576,-1.276 14.167,-0.766Z" style="fill-rule:nonzero;"/><path d="M488.294,1331.08c4.847,0.451 9.87,1.236 14.285,3.375c4.572,7.299 10.224,13.618 15.169,20.643c3.002,4.042 9.674,4.964 10.871,10.243c1.216,3.473 2.217,6.259 5.043,8.79c3.904,3.415 3.198,7.693 4.356,12.382c3.061,1.099 6.395,1.982 9.183,3.65c3.042,2.944 4.57,7.614 6.75,11.224c3.081,5.553 7.849,8.281 11.793,13.265c3.081,3.944 6.103,6.711 10.381,9.34c6.122,3.709 9.576,9.38 16.875,11.185c5.259,1.295 6.475,5.534 9.733,9.262c2.512,3.218 6.809,5.141 9.713,8.045c1.197,2.159 2.1,4.533 3.042,6.809c2.806,0.942 5.729,1.766 8.378,3.081c1.629,2.178 2.944,4.67 4.317,7.025c3.886,0.078 7.751,0.157 11.617,0.275c2.158,3.179 4.395,6.2 7.319,8.751c3.63,3.14 5.749,7.398 9.674,9.988c3.081,2.139 6.004,4.455 9.007,6.692c4.042,3.041 10.047,2.354 13.402,6.298c1.982,1.786 3.944,3.944 6.259,5.298c6.005,0.609 10.989,-0.588 16.13,3.434c-10.203,1.099 -20.564,0.628 -30.827,0.687c-6.887,0.491 -11.263,-4.278 -16.62,-7.849c-57.102,-41.541 -107.887,-91.598 -149.897,-148.366c-5.435,-7.653 -11.793,-15.109 -15.953,-23.527Z" style="fill-rule:nonzero;"/><path d="M537.252,1330.98c5.613,-0.099 11.203,-0.079 16.797,0.294c1.217,3.061 2.198,6.338 3.844,9.183c6.34,6.966 12.953,13.108 21.195,17.778c1.628,5.867 2.963,11.735 5.2,17.425c6.338,-0.628 10.38,1.354 14.756,5.906c1.864,3.434 2.865,7.437 5.023,10.675c2.963,2.414 6.79,3.689 10.047,5.573c4.395,4.081 7.535,9.988 10.635,15.07c2.924,-0.137 5.848,-0.275 8.772,-0.373c3.139,8.242 7.319,11.891 14.579,16.483c3.885,0.157 7.83,-0.746 11.676,-1.216c2.511,6.71 4.317,14.324 8.241,20.348c3.218,2.139 7.712,1.433 11.519,1.805c3.61,4.415 7.221,10.165 12.205,13.069c7.927,2.531 15.776,5.259 23.507,8.32c8.419,2.688 9.753,15.757 17.308,19.74c5.18,3.159 12.087,1.609 18.072,2.944c4.533,3.885 6.063,9.144 12.558,10.066c7.673,1.079 15.286,0.137 22.9,2.119c-9.753,2.669 -20.878,3.67 -30.964,3.159c-7.535,-2.668 -13.854,-4.218 -21.919,-4.415c-1.982,-3.806 -3.512,-6.593 -7.554,-8.496c-5.024,-2.139 -5.377,-6.535 -7.614,-10.969c-4.278,-0.118 -8.556,-0.177 -12.833,-0.216c-1.668,-3.218 -3.277,-6.456 -4.886,-9.694c-4.16,-0.137 -8.811,0.746 -12.814,-0.314c-4.886,-2.963 -9.968,-5.455 -14.952,-8.221c-4.788,-5.377 -9.91,-10.616 -13.912,-16.621c-1.649,0.805 -3.297,1.59 -4.945,2.375c-5.769,-4.984 -11.401,-8.693 -14.541,-16.012c-3.414,-0.255 -6.946,-0.334 -10.282,-1.08c-4.886,-3.021 -8.889,-8.261 -12.912,-12.283c-4.454,-4.082 -9.301,-7.732 -13.853,-11.715c-2.551,-2.826 -3.768,-6.868 -5.828,-10.066c-4.219,-3.356 -11.518,-4.651 -14.207,-9.439c-3.316,-5.769 -9.418,-8.418 -12.637,-14.246c-1.923,-3.296 -4.279,-5.2 -7.495,-7.142c-4.494,-2.316 -6.125,-7.339 -9.38,-11.44c-3.985,-4.945 -3.022,-12.048 -7.084,-16.542c-3.377,-3.728 -5.906,-7.339 -8.222,-11.832Z" style="fill-rule:nonzero;"/><path d="M603.851,1330.86c0.667,3.179 1.295,6.377 1.923,9.556c2.355,-0.235 4.71,-0.491 7.064,-0.726c2.591,4.709 5.181,9.164 9.302,12.715c4.552,3.827 5.16,8.791 7.103,14.05c2.727,-0.549 5.435,-1.118 8.143,-1.629c3.258,5.868 6.024,12.166 9.851,17.68c2.786,1.315 6.613,0.314 9.615,0.216c3.414,6.24 8.575,8.948 13.912,13.108c1.276,3.493 2.041,7.162 3.061,10.714c2.944,1.099 6.005,1.982 8.83,3.375c3.591,3.454 5.946,8.968 10.028,11.891c5.415,0.432 10.871,0.098 16.286,0.452c0.746,4.081 1.433,8.163 2.021,12.264c6.535,2.472 12.735,4.12 17.366,9.791c3.317,4.612 10.714,4.121 15.875,5.652c1.334,2.708 2.571,5.631 4.317,8.104c6.24,2.727 14.521,1.079 21.271,1.354c0.981,2.786 1.962,5.592 2.924,8.398c2.668,1.001 5.415,1.864 7.947,3.12c1.452,1.943 2.57,4.16 3.787,6.26c4.729,0.039 9.458,0.019 14.167,-0.02c0.923,2.708 1.864,5.416 2.826,8.104c4.925,0.118 10.204,-0.294 15.011,0.844c8.752,2.06 13.677,8.752 23.331,7.496c-8.712,2.178 -17.209,5.239 -25.843,7.711c-3.688,-3.237 -7.005,-5.572 -11.851,-6.73c-5.907,-1.334 -10.047,-5.691 -16.032,-6.436c-5.318,-0.844 -9.556,-1.609 -13.422,-5.652c-5.102,-5.572 -12.46,-2.452 -17.856,-7.613c-5.083,-4.611 -8.654,-6.75 -15.522,-7.928c-0.647,-2.452 -1.138,-5.043 -2.139,-7.358c-4.493,-2.983 -9.36,-5.122 -13.52,-8.614c-4.277,-3.709 -9.242,-2.649 -14.56,-3.258c-5.749,-8.83 -14.128,-14.089 -21.682,-21.153c-7.987,-6.671 -16.581,-10.145 -26.53,-12.872c-0.334,-4.082 -0.608,-8.183 -0.981,-12.284c-5.161,-2.727 -10.106,-5.533 -14.776,-9.066c-4.219,-3.433 -7.064,-9.301 -12.127,-11.479c-4.081,-1.864 -7.378,-3.865 -10.203,-7.417c-7.791,-9.811 -18.367,-15.639 -24.313,-26.981c-7.81,-4.042 -14.128,-9.34 -20.918,-14.854c8.85,-1.099 17.425,-0.726 26.314,-0.785Z" style="fill-rule:nonzero;"/><path d="M691.211,1330.66c3.65,0.137 7.339,0.098 10.969,0.549c4.121,0.687 7.672,3.964 11.715,5.122c3.316,0.922 6.73,1.51 10.105,2.158c1.962,4.121 3.395,9.89 7.104,12.735c3.59,2.806 7.005,5.828 10.694,8.497c3.179,0.569 6.475,0.627 9.693,0.843c2.316,3.317 4.317,8.026 8.222,9.576c8.34,4.258 15.973,9.615 21.173,17.543c5.514,2.668 9.183,4.454 12.755,9.693c4.14,0.079 8.261,0.039 12.401,-0.078c1.334,2.668 2.649,5.337 4.003,8.006c4.435,-0.079 8.869,-0.118 13.304,-0.157c3.277,8.084 8.87,13.873 15.267,19.563c4.218,0.805 8.888,-0.255 13.147,-0.549c2.688,2.237 4.65,4.69 8.163,5.592c6.966,1.727 12.166,5.514 18.876,3.964c4.219,-0.53 8.752,-2.041 13.01,-1.629c4.082,1.688 7.437,5.338 11.126,7.751c3.689,0.942 8.222,-1.216 11.911,-1.942c0.844,2.904 1.668,5.808 2.473,8.712c2.688,0.589 5.376,1.138 8.064,1.668c-4.709,3.238 -9.281,6.652 -13.912,10.027c-3.12,-3.198 -5.985,-6.848 -9.517,-9.615c-7.045,-1.079 -14.403,-0.49 -21.526,-0.706c-0.235,-3.454 -0.471,-6.907 -0.785,-10.341c-4.493,1.216 -8.869,2.629 -13.186,4.375c-8.379,-5.003 -16.954,-6.907 -26.608,-7.613c-4.592,-0 -6.142,-3.63 -8.929,-6.574c-3.473,-0.137 -6.985,-0.137 -10.4,-0.843c-2.786,-3.65 -3.924,-8.791 -5.455,-13.069c-4.513,0.098 -9.301,0.981 -13.755,0.255c-3.748,-2.041 -7.005,-5.651 -11.067,-6.946c-4.219,-0.491 -8.536,-0.353 -12.794,-0.452c-2.453,-5.121 -4.376,-10.36 -6.083,-15.756c-5.259,-0.942 -10.439,-1.531 -15.777,-1.786c-1,-3.12 -1.962,-6.24 -2.962,-9.36c-3.415,-1.727 -6.967,-2.159 -8.791,-5.887c-2.669,-5.475 -8.536,-6.554 -12.343,-11.283c-4.278,-5.259 -10.989,-3.964 -16.287,-7.339c-4.925,-4.16 -9.85,-8.241 -13.853,-13.323c-2.139,-3.042 -6.574,-3.591 -9.89,-4.984c-0.078,-2.139 -0.177,-4.278 -0.255,-6.397Z" style="fill-rule:nonzero;"/><path d="M1323.88,1334.81c-6.042,-4.744 -9.917,-11.053 -11.381,-17.756c-7.543,-0.379 -15.012,-2.888 -21.147,-7.667c-6.673,-5.277 -10.862,-11.861 -12.474,-18.719c-7.598,-0.378 -15.142,-2.905 -21.332,-7.753c-6.042,-4.709 -9.898,-11.018 -11.362,-17.722c-7.562,-0.361 -15.031,-2.922 -21.166,-7.701c-6.265,-4.899 -10.231,-11.31 -11.731,-18.066c-7.564,-0.361 -15.051,-2.888 -21.204,-7.701l-52.47,-41.031l-0,208.061c-0,40.55 8.876,71.302 26.652,92.238c17.755,20.954 42.814,31.44 75.155,31.44c30.063,-0 54.417,-10.022 73.1,-30.065c18.663,-20.042 28.005,-51.241 28.005,-93.613l0,-49.351l-18.645,-14.594Z" style="fill:url(#_Linear6);"/></g><defs><linearGradient id="_Linear1" x1="0" y1="0" x2="1" y2="0" gradientUnits="userSpaceOnUse" gradientTransform="matrix(133.49,-324.225,324.225,133.49,940.053,1557.73)"><stop offset="0" style="stop-color:#a8cbe6;stop-opacity:1"/><stop offset="1" style="stop-color:#256ca2;stop-opacity:1"/></linearGradient><linearGradient id="_Linear2" x1="0" y1="0" x2="1" y2="0" gradientUnits="userSpaceOnUse" gradientTransform="matrix(833.521,0,0,1018.68,1139.62,1013.09)"><stop offset="0" style="stop-color:#a8cbe6;stop-opacity:1"/><stop offset="1" style="stop-color:#185380;stop-opacity:1"/></linearGradient><linearGradient id="_Linear3" x1="0" y1="0" x2="1" y2="0" gradientUnits="userSpaceOnUse" gradientTransform="matrix(350.63,0,0,350.63,1061.41,1167.73)"><stop offset="0" style="stop-color:#a8cbe6;stop-opacity:1"/><stop offset="1" style="stop-color:#256ca2;stop-opacity:1"/></linearGradient><linearGradient id="_Linear4" x1="0" y1="0" x2="1" y2="0" gradientUnits="userSpaceOnUse" gradientTransform="matrix(350.63,0,0,350.63,1061.41,1005.33)"><stop offset="0" style="stop-color:#a8cbe6;stop-opacity:1"/><stop offset="1" style="stop-color:#256ca2;stop-opacity:1"/></linearGradient><linearGradient id="_Linear5" x1="0" y1="0" x2="1" y2="0" gradientUnits="userSpaceOnUse" gradientTransform="matrix(350.63,0,0,350.63,1061.41,842.928)"><stop offset="0" style="stop-color:#a8cbe6;stop-opacity:1"/><stop offset="1" style="stop-color:#256ca2;stop-opacity:1"/></linearGradient><linearGradient id="_Linear6" x1="0" y1="0" x2="1" y2="0" gradientUnits="userSpaceOnUse" gradientTransform="matrix(202.912,0,0,202.912,1139.62,1356.55)"><stop offset="0" style="stop-color:#a8cbe6;stop-opacity:1"/><stop offset="1" style="stop-color:#256ca2;stop-opacity:1"/></linearGradient></defs></svg>